<svg width="876" height="195" viewBox="0 0 876 195" fill="none" xmlns="http://www.w3.org/2000/svg">
<path d="M461.5 151.05C454.2 151.05 447.6 149.8 441.7 147.3C435.9 144.8 431.3 141.2 427.9 136.5C424.5 131.8 422.75 126.25 422.65 119.85H445.15C445.45 124.15 446.95 127.55 449.65 130.05C452.45 132.55 456.25 133.8 461.05 133.8C465.95 133.8 469.8 132.65 472.6 130.35C475.4 127.95 476.8 124.85 476.8 121.05C476.8 117.95 475.85 115.4 473.95 113.4C472.05 111.4 469.65 109.85 466.75 108.75C463.95 107.55 460.05 106.25 455.05 104.85C448.25 102.85 442.7 100.9 438.4 99C434.2 97 430.55 94.05 427.45 90.15C424.45 86.15 422.95 80.85 422.95 74.25C422.95 68.05 424.5 62.65 427.6 58.05C430.7 53.45 435.05 49.95 440.65 47.55C446.25 45.05 452.65 43.8 459.85 43.8C470.65 43.8 479.4 46.45 486.1 51.75C492.9 56.95 496.65 64.25 497.35 73.65H474.25C474.05 70.05 472.5 67.1 469.6 64.8C466.8 62.4 463.05 61.2 458.35 61.2C454.25 61.2 450.95 62.25 448.45 64.35C446.05 66.45 444.85 69.5 444.85 73.5C444.85 76.3 445.75 78.65 447.55 80.55C449.45 82.35 451.75 83.85 454.45 85.05C457.25 86.15 461.15 87.45 466.15 88.95C472.95 90.95 478.5 92.95 482.8 94.95C487.1 96.95 490.8 99.95 493.9 103.95C497 107.95 498.55 113.2 498.55 119.7C498.55 125.3 497.1 130.5 494.2 135.3C491.3 140.1 487.05 143.95 481.45 146.85C475.85 149.65 469.2 151.05 461.5 151.05ZM593.106 77.7C593.106 83.3 591.756 88.55 589.056 93.45C586.456 98.35 582.306 102.3 576.606 105.3C571.006 108.3 563.906 109.8 555.306 109.8H537.756V150H516.756V45.3H555.306C563.406 45.3 570.306 46.7 576.006 49.5C581.706 52.3 585.956 56.15 588.756 61.05C591.656 65.95 593.106 71.5 593.106 77.7ZM554.406 92.85C560.206 92.85 564.506 91.55 567.306 88.95C570.106 86.25 571.506 82.5 571.506 77.7C571.506 67.5 565.806 62.4 554.406 62.4H537.756V92.85H554.406ZM629.016 133.35H663.516V150H608.016V45.3H629.016V133.35ZM741.064 130.05H699.364L692.464 150H670.414L708.064 45.15H732.514L770.164 150H747.964L741.064 130.05ZM735.364 113.25L720.214 69.45L705.064 113.25H735.364ZM867.487 45.3L832.087 113.55V150H811.087V113.55L775.537 45.3H799.237L821.737 93.15L844.087 45.3H867.487Z" fill="white"/>
<path d="M31.35 45.3V150H10.35V45.3H31.35ZM141.648 150H120.648L73.098 78.15V150H52.098V45.15H73.098L120.648 117.15V45.15H141.648V150ZM157.301 97.5C157.301 87.2 159.601 78 164.201 69.9C168.901 61.7 175.251 55.35 183.251 50.85C191.351 46.25 200.401 43.95 210.401 43.95C222.101 43.95 232.351 46.95 241.151 52.95C249.951 58.95 256.101 67.25 259.601 77.85H235.451C233.051 72.85 229.651 69.1 225.251 66.6C220.951 64.1 215.951 62.85 210.251 62.85C204.151 62.85 198.701 64.3 193.901 67.2C189.201 70 185.501 74 182.801 79.2C180.201 84.4 178.901 90.5 178.901 97.5C178.901 104.4 180.201 110.5 182.801 115.8C185.501 121 189.201 125.05 193.901 127.95C198.701 130.75 204.151 132.15 210.251 132.15C215.951 132.15 220.951 130.9 225.251 128.4C229.651 125.8 233.051 122 235.451 117H259.601C256.101 127.7 249.951 136.05 241.151 142.05C232.451 147.95 222.201 150.9 210.401 150.9C200.401 150.9 191.351 148.65 183.251 144.15C175.251 139.55 168.901 133.2 164.201 125.1C159.601 117 157.301 107.8 157.301 97.5Z" fill="white"/>
<path d="M315.569 19.276C314.861 19.9162 314.145 20.5476 313.446 21.198C308.316 25.9742 304.679 31.7408 302.282 38.3227C300.557 43.0616 299.509 47.9283 299.244 52.992C298.758 62.2867 300.816 70.9543 305.305 79.0488C309.458 86.5381 315.286 92.4357 322.54 96.8737C328.302 100.399 334.54 102.74 341.25 103.567C344.403 103.955 347.608 104.133 350.785 104.082C356.871 103.984 362.728 102.607 368.339 100.226C375.045 97.3798 380.861 93.2472 385.769 87.8374C391.738 81.2585 395.575 73.5796 397.42 64.8713C398.119 61.5731 398.43 58.2331 398.401 54.8776C398.352 49.1704 397.307 43.6295 395.304 38.2805C395.237 38.1005 395.201 37.9088 395.315 37.6098C396.374 38.833 397.47 40.0262 398.486 41.2844C403.85 47.9246 407.921 55.2878 410.562 63.4319C412.267 68.6888 413.398 74.0615 413.824 79.59C414.831 92.6673 412.344 105.04 406.463 116.713C403.788 122.021 400.448 126.89 396.487 131.334C390.226 138.359 382.931 143.987 374.496 148.106C367.718 151.415 360.608 153.608 353.142 154.692C348.41 155.379 343.66 155.561 338.91 155.314C330.032 154.852 321.516 152.79 313.372 149.137C306.74 146.162 300.706 142.263 295.266 137.457C289.443 132.311 284.597 126.329 280.737 119.551C276.775 112.594 274.096 105.152 272.713 97.2723C272.16 94.1257 271.922 90.908 271.753 87.7113C271.285 78.9182 272.675 70.3748 275.622 62.1069C276.745 58.9567 278.178 55.9189 279.471 52.8298C279.564 52.8556 279.657 52.8813 279.75 52.9071C279.694 53.6839 279.655 54.4624 279.58 55.2374C279.16 59.6074 279.572 63.9199 280.483 68.1929C281.563 73.2632 283.35 78.0602 286.253 82.3677C287.222 83.8053 288.455 85.0625 289.631 86.4522C289.725 86.5453 289.756 86.5883 289.786 86.6314C289.767 86.5485 289.747 86.4656 289.728 86.3827C289.167 84.6378 288.578 82.9013 288.05 81.1465C286.324 75.4167 285.724 69.5366 286.093 63.5874C286.679 54.1477 289.485 45.401 294.633 37.4583C299.671 29.6849 306.26 23.6437 314.544 19.516C314.803 19.3872 315.075 19.2861 315.43 19.1929C315.519 19.2137 315.569 19.276 315.569 19.276Z" fill="url(#paint0_linear_21_101)" fill-opacity="0.57"/>
<path d="M315.58 19.2596C314.88 19.9089 310.692 23.7791 310.001 24.4385C305.206 29.3538 301.594 35.9043 299.276 42.5168C297.606 47.2777 297.233 52.1556 297.029 57.2225C296.654 66.5228 298.815 75.163 303.4 83.1986C307.642 90.6335 313.539 96.455 320.845 100.799C326.649 104.249 332.914 106.509 339.633 107.248C342.792 107.595 345.998 107.732 349.174 107.639C355.259 107.462 361.099 106.009 366.681 103.556C373.352 100.623 379.281 96.6443 384.124 91.1711C390.227 84.676 394.853 76.9982 396.595 68.2666C397.254 64.9595 398.323 61.0047 398.255 57.6498C398.138 51.9437 397.802 44.7247 395.736 39.4021C395.666 39.223 394.952 37.6477 395.301 37.5598C396.374 38.7692 398.624 41.4893 399.655 42.7342C405.098 49.3043 408.235 56.5537 410.974 64.6629C412.741 69.8972 413.757 76.5936 413.929 82.1208C415.092 95.1841 411.565 107.302 405.46 118.886C402.849 124.228 399.105 129.801 395.198 134.296C389.021 141.402 381.794 147.124 373.407 151.353C366.67 154.75 359.587 157.035 352.135 158.215C347.411 158.964 342.663 159.208 337.911 159.022C329.028 158.676 320.488 156.724 312.301 153.177C305.634 150.288 299.554 146.468 294.058 141.733C288.174 136.663 283.257 130.744 279.316 124.017C275.271 117.112 272.505 109.706 271.027 101.844C270.437 98.7047 270.161 95.4903 269.953 92.2961C269.381 83.5097 270.669 74.9488 273.517 66.6433C274.602 63.4787 276.139 60.4962 277.394 57.3906C277.488 57.4151 277.442 57.366 277.535 57.3905C277.489 58.1681 277.458 58.947 277.393 59.7229C277.025 64.0981 277.489 68.4049 278.45 72.6657C279.591 77.7216 281.434 82.4951 284.389 86.7646C285.374 88.1896 286.622 89.4306 287.815 90.805C287.91 90.8969 287.941 90.9395 287.972 90.9821C287.952 90.8995 287.932 90.8168 287.911 90.7342C287.329 88.9967 286.72 87.268 286.171 85.5202C284.377 79.8132 283.707 73.9413 284.005 67.9877C284.478 58.5411 287.165 49.564 292.218 41.555C296.491 33.5691 301.809 27.8639 307.387 23.8255C307.736 23.5622 309.828 21.8942 313.488 20.0501C315.58 18.8209 315.58 19.2596 315.58 19.2596Z" fill="url(#paint1_linear_21_101)"/>
<path d="M320.502 28.6575C318.529 33.1691 317.256 37.7838 317.212 42.6897C317.1 55.03 321.94 64.9352 331.74 72.3213C337.298 76.5099 343.646 78.7029 350.547 79.2064C353.759 79.4407 356.953 79.1999 360.14 78.5784C365.172 77.5967 369.824 75.7158 374.01 72.7866C381.958 67.2254 387.02 59.6476 389.057 50.1038C389.913 46.0881 390.047 42.0115 389.531 37.9114C390.168 40.2211 390.984 42.4982 391.405 44.847C392.379 50.2715 392.265 55.778 391.072 61.1079C388.933 70.6644 383.483 78.3025 376.053 84.6425C372.432 87.7323 368.772 89.9312 364.377 91.6613C358.815 93.8508 352.948 94.2835 346.95 94.1178C339.233 93.9047 332.259 91.4969 325.688 87.45C318.338 82.9228 313.678 77.3194 310.178 69.3768C305.235 58.1573 304.941 47.6778 309.655 36.3887C312.923 28.5638 317.713 22.2663 324.685 17.4999C327.884 15.313 331.306 13.5412 335.001 12.3415C335.138 12.2971 335.278 12.2633 335.458 12.273C328.848 16.2136 323.845 21.628 320.502 28.6575Z" fill="url(#paint2_linear_21_101)"/>
<path d="M332.342 19.2582C328.751 22.6082 325.761 26.3331 323.783 30.8168C318.808 42.0952 319.338 53.1214 325.414 63.8216C328.86 69.8896 333.819 74.4429 339.952 77.6672C342.807 79.1678 345.833 80.2255 349.002 80.9307C354.008 82.0443 359.019 82.1806 364.017 81.1685C373.505 79.2469 381.142 74.3198 386.779 66.3778C389.151 63.036 390.883 59.3486 392.029 55.3802C391.701 57.7544 391.55 60.1704 391.01 62.4944C389.761 67.8616 387.518 72.8196 384.284 77.2817C378.548 85.1944 371.003 90.5465 361.682 93.3902C357.14 94.776 352.497 95.3666 347.781 95.1949C341.813 94.9776 336.08 93.6478 330.641 91.0946C323.644 87.8102 317.902 83.0037 313.47 76.6603C308.513 69.5639 305.893 61.643 305.818 52.9542C305.712 40.6807 310.165 30.2834 318.948 21.8117C325.036 15.9396 332.307 12.2776 340.586 10.6946C344.385 9.96835 348.225 9.71252 352.089 10.0907C352.232 10.1047 352.374 10.1298 352.535 10.2105C344.914 11.1805 338.185 14.146 332.342 19.2582Z" fill="url(#paint3_linear_21_101)"/>
<path d="M329.348 52.4588C330.061 52.8251 330.79 53.161 331.483 53.5626C335.625 55.966 340.053 57.5947 344.789 58.2042C351.205 59.0299 357.456 58.2591 363.415 55.6477C372.243 51.7788 378.896 45.5129 383.049 36.7737C383.597 35.6197 383.949 34.861 384.418 33.6688C384.888 32.4766 385.281 31.2859 385.551 31.1245C385.85 32.713 386.074 34.3707 386.074 37.6168C385.551 45.8639 384.331 51.3034 378.667 58.2344C373.598 63.6725 367.852 67.2586 360.633 68.361C358.528 68.6825 356.35 68.8959 354.238 68.7286C347.825 68.2203 341.983 66.0951 336.939 61.9473C333.771 59.3423 331.22 56.2497 329.354 52.5199C329.35 52.4571 329.348 52.4588 329.348 52.4588Z" fill="#AA68D2"/>
<path d="M333.244 54.722C334.022 54.9066 334.811 55.0575 335.578 55.2813C340.171 56.6205 344.857 57.1387 349.6 56.5932C356.026 55.8542 361.914 53.6045 367.082 49.6373C374.74 43.7599 379.706 36.1254 381.679 26.5927C381.938 25.3403 382.028 24.0527 382.202 22.7821C382.227 22.5984 382.282 22.4188 382.505 22.1974C383.172 23.6683 383.989 25.0901 384.479 26.6183C386.909 34.2004 386.415 41.5931 382.754 48.6978C379.368 55.2694 374.142 59.8475 367.393 62.6517C365.425 63.4695 363.36 64.2 361.27 64.5445C354.921 65.5911 348.744 64.9303 342.863 62.1136C339.169 60.3446 335.96 57.9538 333.263 54.78C333.245 54.7199 333.244 54.722 333.244 54.722Z" fill="url(#paint4_linear_21_101)"/>
<defs>
<linearGradient id="paint0_linear_21_101" x1="302.249" y1="22.1758" x2="343.363" y2="155.261" gradientUnits="userSpaceOnUse">
<stop offset="0.366762" stop-color="#FE9063"/>
<stop offset="1" stop-color="#3508F7"/>
</linearGradient>
<linearGradient id="paint1_linear_21_101" x1="277.757" y1="33.0512" x2="343.606" y2="158.66" gradientUnits="userSpaceOnUse">
<stop offset="0.458333" stop-color="#704FFE"/>
<stop offset="1" stop-color="#AA68D2"/>
</linearGradient>
<linearGradient id="paint2_linear_21_101" x1="337.989" y1="11.5046" x2="360.724" y2="92.8531" gradientUnits="userSpaceOnUse">
<stop offset="0.682292" stop-color="#AA68D2" stop-opacity="0.49"/>
<stop offset="1" stop-color="#704FFE" stop-opacity="0.57"/>
</linearGradient>
<linearGradient id="paint3_linear_21_101" x1="354.739" y1="10.4595" x2="342.942" y2="94.7654" gradientUnits="userSpaceOnUse">
<stop stop-color="#AA68D2"/>
<stop offset="1" stop-color="#704FFE"/>
</linearGradient>
<linearGradient id="paint4_linear_21_101" x1="355.998" y1="28.7526" x2="364.657" y2="63.767" gradientUnits="userSpaceOnUse">
<stop stop-color="#704FFE"/>
<stop offset="1" stop-color="#704FFE" stop-opacity="0"/>
</linearGradient>
</defs>
</svg>
