<svg xmlns="http://www.w3.org/2000/svg" xmlns:xlink="http://www.w3.org/1999/xlink" viewBox="0 0 512 512"><defs><style>.a{fill:none;}.b{clip-path:url(#a);}.c{fill:#fff;}.d{fill:#3abb94;}</style><clipPath id="a"><circle class="a" cx="256" cy="256" r="256"/></clipPath></defs><title>logo-main-2</title><g class="b"><circle cx="256" cy="256" r="256"/><path class="c" d="M107.2,200.7c-26-3-47.1-14-63.8-32.9S18.7,127,18.7,102.1c0-27.6,9.6-50.9,29.1-70.4S91.9,2.4,121.4,2.4s54,9.9,73.4,29.3,29.1,42.8,29.1,70.4A97.9,97.9,0,0,1,168,191.4c5.5,6.8,13.1,10.1,23.3,10.1a46.4,46.4,0,0,0,22.7-5.7v47.9a81.3,81.3,0,0,1-32.3,6.3c-25.5,0-46.3-11-62.5-32.6Zm14.2-52.6c12.4,0,22.5-4.4,30.4-12.8s12.1-19.8,12.1-33.2-4.1-24.4-12.1-32.8-18-13.2-30.4-13.2S99,60.5,91,69.3,79,88.7,79,102.1s4.1,24.4,12,33.2S109.1,148.1,121.4,148.1Z"/><path class="c" d="M228,198,306.8,5.2H363L442.1,198H378.9l-13.7-35.9H302.7L288.8,198Zm91.7-80h28.2l-14-45.5Z"/><path class="c" d="M137.2,377.5C127,368.3,122,356.5,122,342s5.2-26.4,15.3-35.5,23.1-13.8,38.7-13.8a58.3,58.3,0,0,1,11.5.9,64.9,64.9,0,0,1,7.8,2l7.5,3v26.7c-25.5-13.1-51.7-4.4-50.8,17.1,0,7.5,2.1,13.2,6.6,17.4a22.6,22.6,0,0,0,16.1,6.2c4.9,0,8.7-1,11.3-2.7V334.1h29.3v42.7c-3.7,4-9.3,7.5-16.7,10.3a65,65,0,0,1-23.9,4.2Q152.4,391.3,137.2,377.5Z"/><path class="c" d="M225.4,294.6h29.2v55.7c0,10.1,6.2,14.6,14.2,14.6s14.1-4.5,14.1-14.6V294.6H312v55.5c0,13.2-4,23.4-12.3,30.5s-18.4,10.7-30.9,10.7-22.8-3.5-31-10.7-12.4-17.3-12.4-30.5Z"/><path class="c" d="M417.8,389.4H383.7l-25.2-33.8h-4v33.8H325.3V294.6h45.8c10.7,0,19.4,2.8,25.9,8.6a27.9,27.9,0,0,1,9.8,21.9c0,11.9-6.5,21.8-17.4,27.2Zm-50.1-55.1c5.5,0,9.1-3,9.1-7.7s-3.6-7.6-9.1-7.6H354.5v15.3Z"/><path class="c" d="M422.5,294.6h29.2v55.7c0,10.1,6.2,14.6,14.2,14.6s14.1-4.5,14.1-14.6V294.6h29.1v55.5c0,13.2-4,23.4-12.3,30.5s-18.4,10.7-30.9,10.7-22.8-3.5-31.1-10.7-12.3-17.3-12.3-30.5Z"/><path class="d" d="M78.9,232.6A32.7,32.7,0,0,1,89,256.9a34.7,34.7,0,0,1-34.4,34.7c-9.3,0-17.4-3.4-24.5-10.2A33.6,33.6,0,0,1,20,256.9a32.7,32.7,0,0,1,10.1-24.3,33.5,33.5,0,0,1,24.5-10.2A33.3,33.3,0,0,1,78.9,232.6Z"/></g></svg>