<?xml version="1.0" encoding="UTF-8"?> <svg xmlns="http://www.w3.org/2000/svg" width="171" height="30" viewBox="0 0 171 30" fill="none"> <path d="M8.68456 6.9807C13.7818 6.9807 16.3304 9.88649 16.3304 15.6981C16.3304 21.5096 13.7818 24.4154 8.68456 24.4154C6.47085 24.4154 4.73961 23.7174 3.49085 22.3212V24.4154H0V0H3.49085V9.07491C4.73961 7.67877 6.47085 6.9807 8.68456 6.9807ZM5.41508 20.4994C6.06216 20.7832 6.9817 20.9251 8.1737 20.9251C9.3657 20.9251 10.2852 20.7832 10.9323 20.4994C11.5794 20.2043 12.0562 19.6822 12.3627 18.933C12.6806 18.1725 12.8395 17.0942 12.8395 15.6981C12.8395 14.3019 12.6806 13.2293 12.3627 12.4801C12.0562 11.7196 11.5794 11.1975 10.9323 10.9137C10.2852 10.6186 9.3657 10.4711 8.1737 10.4711C6.9817 10.4711 6.06216 10.6186 5.41508 10.9137C4.76799 11.1975 4.28552 11.7196 3.96765 12.4801C3.64978 13.2293 3.49085 14.3019 3.49085 15.6981C3.49085 17.0942 3.64978 18.1725 3.96765 18.933C4.28552 19.6822 4.76799 20.2043 5.41508 20.4994Z" fill="white"></path> <path d="M30.8905 6.9807H34.3643V30H21.1161V26.5096H30.8905V20.9251C30.3342 21.5494 29.636 22.0545 28.7959 22.4404C27.9559 22.8263 27.0363 23.0193 26.0373 23.0193C24.7545 23.0193 23.6306 22.815 22.6657 22.4064C21.7121 21.9864 20.9515 21.4075 20.3839 20.6697C19.8276 19.9205 19.4132 19.0749 19.1408 18.1328C18.8797 17.1907 18.7491 16.1464 18.7491 15V6.9807H22.24V15C22.24 16.714 22.5692 17.9001 23.2276 18.5585C23.8861 19.2054 24.9986 19.5289 26.5652 19.5289C28.1318 19.5289 29.2444 19.2054 29.9028 18.5585C30.5612 17.9001 30.8905 16.714 30.8905 15V6.9807Z" fill="white"></path> <path d="M48.0219 10.4711H43.4242V20.9251H48.0219V24.4154H39.9333V10.4711H37.1406V6.9807H39.9333V0H43.4242V6.9807H48.0219V10.4711Z" fill="white"></path> <path d="M65 15.3575V17.4347H53.5568C53.7271 18.5471 54.1982 19.4098 54.9702 20.0227C55.7535 20.6243 57.0306 20.9251 58.8016 20.9251C59.4146 20.9251 59.8971 20.9194 60.249 20.9081C60.6123 20.8967 61.1232 20.84 61.7816 20.7378C62.44 20.6356 63.1212 20.4881 63.825 20.2951V23.7174C62.9622 23.933 62.2073 24.0976 61.5602 24.2111C60.9245 24.3133 60.4477 24.3757 60.1298 24.3984C59.812 24.4098 59.3692 24.4154 58.8016 24.4154C57.7118 24.4154 56.7185 24.3076 55.8216 24.0919C54.9361 23.8763 54.1926 23.5925 53.5909 23.2406C52.9892 22.8888 52.4613 22.4631 52.0072 21.9637C51.5531 21.4529 51.1955 20.9478 50.9344 20.4484C50.6733 19.9376 50.4633 19.3814 50.3044 18.7798C50.1568 18.1782 50.0546 17.639 49.9979 17.1623C49.9524 16.6856 49.9297 16.1975 49.9297 15.6981C49.9297 14.3814 50.0716 13.2066 50.3555 12.1737C50.6506 11.1294 51.0934 10.2157 51.6837 9.43246C52.274 8.63791 53.0573 8.03065 54.0336 7.61067C55.0213 7.19069 56.1679 6.9807 57.4734 6.9807C62.4911 6.9807 65 9.77299 65 15.3575ZM57.4734 10.4711C56.1792 10.4711 55.2086 10.7605 54.5615 11.3394C53.9258 11.9069 53.5568 12.7809 53.4546 13.9614H61.5091C61.441 12.6901 61.0948 11.7934 60.4704 11.2713C59.8574 10.7378 58.8584 10.4711 57.4734 10.4711Z" fill="white"></path> <path d="M109.117 6.86192V24H105.612V10.2929H99.3198V24H95.8146V10.2929H89.5052V24H86V6.86192H109.117Z" fill="white"></path> <path d="M112.589 0H116.094V3.43096H112.589V0ZM112.589 6.86192H116.094V24H112.589V6.86192Z" fill="white"></path> <path d="M134.322 6.86192V24H130.817V10.2929H123.122V24H119.617V6.86192H134.322Z" fill="white"></path> <path d="M149.985 0H153.49V24H149.985V21.9414C148.731 23.3138 146.993 24 144.77 24C139.652 24 137.093 21.1437 137.093 15.431C137.093 9.71827 139.652 6.86192 144.77 6.86192C146.993 6.86192 148.731 7.54812 149.985 8.9205V0ZM142.53 20.1506C143.18 20.4296 144.103 20.569 145.3 20.569C146.497 20.569 147.42 20.4296 148.07 20.1506C148.72 19.8605 149.199 19.3473 149.506 18.6109C149.826 17.8633 149.985 16.8033 149.985 15.431C149.985 14.0586 149.826 13.0042 149.506 12.2678C149.199 11.5202 148.72 11.007 148.07 10.728C147.42 10.4379 146.497 10.2929 145.3 10.2929C144.103 10.2929 143.18 10.4379 142.53 10.728C141.88 11.007 141.396 11.5202 141.077 12.2678C140.758 13.0042 140.598 14.0586 140.598 15.431C140.598 16.8033 140.758 17.8633 141.077 18.6109C141.396 19.3473 141.88 19.8605 142.53 20.1506Z" fill="white"></path> <path d="M156.996 22.1423V18.3431C158.672 19.1911 160.017 19.7768 161.032 20.1004C162.046 20.4128 163.175 20.569 164.417 20.569C165.523 20.569 166.309 20.4351 166.777 20.1674C167.255 19.8884 167.495 19.4756 167.495 18.9289C167.495 18.371 167.261 17.9861 166.794 17.7741C166.338 17.5621 165.266 17.2775 163.579 16.9205C163.488 16.8982 163.42 16.8815 163.374 16.8703C160.855 16.3459 159.162 15.7322 158.296 15.0293C157.429 14.3152 156.996 13.1939 156.996 11.6653C156.996 10.2371 157.566 9.08229 158.706 8.20084C159.846 7.30823 161.351 6.86192 163.22 6.86192C165.466 6.86192 167.592 7.3417 169.598 8.30126V11.7322C166.828 10.7727 164.588 10.2929 162.878 10.2929C162.012 10.2929 161.396 10.3989 161.032 10.6109C160.678 10.8229 160.501 11.152 160.501 11.5983C160.501 11.9331 160.581 12.1953 160.741 12.3849C160.9 12.5635 161.208 12.7364 161.664 12.9038C162.132 13.06 162.884 13.2497 163.921 13.4728C165.05 13.7183 165.962 13.947 166.657 14.159C167.364 14.3598 168.019 14.5997 168.623 14.8787C169.239 15.1576 169.701 15.4756 170.008 15.8326C170.327 16.1897 170.573 16.6137 170.744 17.1046C170.915 17.5955 171 18.1813 171 18.8619C171 20.4909 170.419 21.7573 169.256 22.6611C168.093 23.5537 166.48 24 164.417 24C163.038 24 161.772 23.8605 160.621 23.5816C159.481 23.2915 158.273 22.8117 156.996 22.1423Z" fill="white"></path> <path d="M82 0L72.8512 30H69L78.1488 0H82Z" fill="#FD5101"></path> </svg> 