<?xml version="1.0" encoding="utf-8"?>
<!-- Generator: Adobe Illustrator 24.3.0, SVG Export Plug-In . SVG Version: 6.00 Build 0)  -->
<svg version="1.1"
	 id="svg2" xmlns:cc="http://creativecommons.org/ns#" xmlns:dc="http://purl.org/dc/elements/1.1/" xmlns:rdf="http://www.w3.org/1999/02/22-rdf-syntax-ns#" xmlns:svg="http://www.w3.org/2000/svg"
	 xmlns="http://www.w3.org/2000/svg" xmlns:xlink="http://www.w3.org/1999/xlink" x="0px" y="0px" viewBox="0 0 566.9 87.7"
	 style="enable-background:new 0 0 566.9 87.7;" xml:space="preserve">
<style type="text/css">
	.st0{fill:#041C4D;}
	.st1{fill:#FFFFFF;}
</style>
<path id="path14" class="st0" d="M0,0h566.9v87.7H0V0"/>
<path id="path16" class="st1" d="M60.1,53.9c0,1.9,0,3.7,0,5.4c-6.5,0-9.8,0-19.1,0c-7.3-0.7-12.2-8.1-11.9-16.2
	C29.4,35,35,29,43.8,28.8c0.2,0,28.6,0,43.8,0c-0.8,1.9-1.5,3.6-2.3,5.5c-3,0-5.9,0-9,0c0,8.4,0,16.6,0,24.9c-1.8,0-3.4,0-5.2,0
	c0-8.1,0-16.5,0-24.9c-1-0.1-1.8,0-2.6,0c-8.1,0-16.2,0-24.3,0c-5.6,0-9.5,3.7-9.7,9.2c-0.2,6.1,3,9.9,9,10.3
	C48,54.1,60.3,54,60.1,53.9"/>
<path id="path18" class="st1" d="M320.2,58.3c-2,0-3.7,0-5.6,0c-1.3-6.3-2.5-12.7-3.9-19.7c-0.9,1.8-1.6,3.1-2.3,4.4
	c-2.2,4.5-4.3,9-6.7,13.4c-1,1.8-1.8,2.3-3.1,2.3c-1.1,0-1.9-0.5-2.9-2.3c-2.8-5.3-5.4-10.7-8.1-16.1c-0.2-0.4-0.4-0.7-0.9-1.5
	c-1.3,6.8-2.6,13.1-3.9,19.5c-1.8,0-3.6,0-5.6,0c1.5-6.5,3-12.9,4.4-19.2c0.5-2.3,1-4.2,1.6-6.8c0.4-1.3,1.2-3.1,2.7-3.2
	c2,0,2.7,1.2,3.3,2.3c2.7,5.1,5.1,10.3,7.6,15.5c0.5,1.1,1.1,2.1,1.8,3.5c2.8-5.7,5.4-11.1,8.1-16.5c0.5-0.9,1-1.8,1.4-2.7
	c0.6-1.2,1.4-2.1,3.2-2.1c1.3,0,2.3,1.7,2.6,2.9c1.2,4,1.9,8.1,2.9,12.1C318,48.7,319.1,53.3,320.2,58.3"/>
<path id="path20" class="st1" d="M473.3,58.1c-2,0-3.7,0-5.6,0c-1.3-6.3-2.5-12.7-3.9-19.7c-0.9,1.8-1.6,3.1-2.3,4.4
	c-2.2,4.5-4.3,9-6.7,13.4c-1,1.8-1.8,2.3-3.1,2.3c-1.1,0-1.9-0.5-2.9-2.3c-2.8-5.3-5.4-10.7-8.1-16.1c-0.2-0.4-0.4-0.7-0.9-1.5
	c-1.3,6.8-2.6,13.1-3.9,19.5c-1.8,0-3.6,0-5.6,0c1.5-6.5,3-12.9,4.4-19.2c0.5-2.3,1-4.2,1.6-6.8c0.4-1.3,1.2-3.1,2.7-3.2
	c2,0,2.7,1.2,3.3,2.3c2.7,5.1,5.1,10.3,7.6,15.5c0.5,1.1,1.1,2.1,1.8,3.5c2.8-5.7,5.5-11.1,8.1-16.5c0.5-0.9,1-1.8,1.4-2.7
	c0.6-1.2,1.4-2.1,3.2-2.1c1.3,0,2.3,1.7,2.6,2.9c1.2,4,1.9,8.1,2.9,12.1C471.1,48.5,472.2,53.1,473.3,58.1"/>
<path id="path22" class="st1" d="M359.1,44.9c5.9,0,11.6,0.2,17.4-0.1c3.2-0.2,4.8-2.4,4.7-5.2c-0.1-2.7-1.7-4.8-4.8-5
	c-5.7-0.3-11.5-0.1-17.3-0.1C359.1,38.1,359.1,41.5,359.1,44.9z M378.8,50c2.9,2.8,5.5,5.4,8.5,8.3c-2.8,0-5.1,0-7.4,0
	c-2.5-2.6-5.1-5.3-7.5-7.8c-4.6,0-8.8,0-13.4,0c0,2.6,0,5.1,0,7.7c-1.7,0-3.2,0-4.8,0c0-9.6,0-19.2,0-29.1c4.7,0,9.3,0,13.9,0
	c3.1,0,6.3-0.1,9.4,0.4c5.6,0.9,8.2,3.8,8.9,9.2c0.6,4.5-1.6,8.1-6.4,10.6C379.8,49.5,379.6,49.6,378.8,50"/>
<path id="path24" class="st1" d="M177,58.4c0-1.8,0-3.3,0-5.2c3.8,0,7.5,0,11.2,0c3.2,0,6.4,0.1,9.7,0c1.1,0,2.4-0.2,3.3-0.8
	c0.9-0.7,1.8-2,1.8-3.1c0-1-1-2.4-1.9-3c-1.2-0.7-2.7-0.8-4-0.9c-4-0.1-8.1,0-12.1,0c-5.2-0.1-8.4-3.2-8.5-8c0-4.8,3.4-8.1,8.4-8.1
	c6.9-0.1,13.9,0,21,0c0,1.7,0,3.3,0,5.2c-0.9,0-1.8,0-2.6,0c-5.8,0-11.6,0-17.3,0c-1.9,0-3.9,0.2-3.9,2.8c0,2.6,1.9,2.9,3.9,2.9
	c4.1,0,8.3-0.1,12.4,0c5.6,0.1,9.4,3.8,9.5,9.1c0,4.9-3.1,8.9-7.8,9C192.3,58.5,184.8,58.4,177,58.4"/>
<path id="path26" class="st1" d="M536,29.3c0,1.8,0,3.4,0,5.2c-4.6,0-9.2,0-13.7,0c-2.3,0-4.6-0.1-6.9,0c-1.8,0.1-3.3,0.7-3.3,3
	c0.1,2.2,1.6,2.6,3.3,2.6c4.4,0,8.8-0.1,13.1,0c6.6,0.2,10.6,5.5,9,11.9c-0.8,3.2-3.8,6.1-7.2,6.2c-7.6,0.2-15.2,0.1-22.9,0.1
	c0-1.7,0-3.3,0-5.1c2.2,0,4.3,0,6.5,0c5,0,10.1,0.1,15.1-0.1c2.5-0.1,4.1-1.6,4.2-3.5c0.1-2.1-1-3.7-3.8-3.9
	c-4.4-0.3-8.7-0.2-13.1-0.3c-1.3,0-2.7,0-3.9-0.3c-3.7-0.9-6.1-4.4-5.9-8.2c0.2-4.1,3.2-7.5,7.5-7.6C521.1,29.2,528.4,29.3,536,29.3
	"/>
<path id="path28" class="st1" d="M502.6,53.2c0,1.9,0,3.5,0,5.2c-8,0-15.9,0-23.9,0c0-9.8,0-19.3,0-29.1c8,0,15.8,0,23.8,0
	c0,1.6,0,3.2,0,5.1c-6.1,0-12.2,0-18.6,0c0,2.2,0,4.2,0,6.4c5.8,0,11.6,0,17.5,0c0,1.9,0,3.5,0,5.4c-5.9,0-11.6,0-17.5,0
	c0,2.4,0,4.5,0,6.9C490.2,53.2,496.4,53.2,502.6,53.2"/>
<path id="path30" class="st1" d="M256.9,53.2c1.4,0,2.8,0,4.2,0c5.1-0.1,8.8-3.8,8.9-9.1c0.1-5.2-3.5-9.4-8.5-9.6
	c-3-0.2-5.9-0.2-8.9,0c-5.2,0.3-8.6,4.3-8.5,9.8c0.1,5.3,3.7,8.8,9,8.9C254.4,53.2,255.7,53.2,256.9,53.2L256.9,53.2z M257,58.5
	c-1.6,0-3.1,0-4.7,0c-7.6-0.3-13.2-6.6-13.2-14.8c0.1-8.3,5.5-14.2,13.3-14.3c4-0.1,8.1-0.2,12.1,0.5c6.9,1.2,11.1,7.5,10.5,15
	c-0.6,7.8-5.8,13.4-12.8,13.7C260.5,58.5,258.8,58.4,257,58.5C257,58.4,257,58.4,257,58.5"/>
<path id="path32" class="st1" d="M330.4,46.3c0,2.4,0,4.5,0,6.8c6.3,0,12.5,0,18.9,0c0,1.8,0,3.3,0,5.1c-7.9,0-15.8,0-23.9,0
	c0-9.6,0-19.1,0-28.8c7.9,0,15.8,0,23.9,0c0,1.5,0,3.1,0,4.9c-6.2,0-12.4,0-18.8,0c0,2.4,0,4.4,0,6.7c5.8,0,11.5,0,17.4,0
	c0,1.8,0,3.4,0,5.3C342.1,46.3,336.3,46.3,330.4,46.3"/>
<path id="path34" class="st1" d="M138.7,29.2c-0.9,2-1.6,3.6-2.4,5.4c-5.1,0-10.1,0-15.2,0c-5.7,0-9.4,3.6-9.4,9.3
	c0,5.7,3.6,9.2,9.4,9.3c4.9,0,9.8,0,14.6,0.1c0.1,0,0.3,0.1,0.6,0.3c0,1.5,0,3.1,0,4.6c-6.5,0-12.9,0.6-19.1-0.2
	c-6.7-0.9-11.1-8.2-10.6-15.1c0.6-9.2,7.1-13.6,13.5-13.7C126.2,29.2,132.2,29.2,138.7,29.2"/>
<path id="path36" class="st1" d="M143.3,29.3c1.2,0,2,0,3.2,0c0,1.7,0,3.3,0,4.9c0,3.9,0,7.8,0,11.7c0.1,4.1,1.7,6.3,5.5,6.7
	c3.3,0.4,6.8,0.4,10.1-0.1c3.3-0.4,4.8-2.6,5-6.1c0.2-4.7,0.1-9.4,0.1-14.1c0-0.9,0-1.9,0-3c1.7,0,3.1,0,4.8,0
	c0.1,0.7,0.2,1.4,0.2,2.1c0,4.7,0.1,9.4,0,14.1c-0.1,7.8-3.9,12.2-11.3,12.7c-3.3,0.2-6.8,0.2-10.1-0.3c-6.2-1.1-9.3-5.1-9.4-11.7
	c-0.1-3.6-0.2-7.1,0.1-10.7C141.6,33.5,142.6,31.5,143.3,29.3"/>
<path id="path38" class="st1" d="M220.9,34.6c-3.9,0-7.3,0-10.8,0c0-1.8,0-3.4,0-5.2c8.9,0,17.6,0,26.5,0c0,1.7,0,3.2,0,5.1
	c-3.5,0-7,0-10.7,0c0,8.2,0,15.9,0,23.9c-1.7,0-3.2,0-5,0C220.9,50.6,220.9,42.8,220.9,34.6"/>
<path id="path40" class="st1" d="M416.8,34.5c-3.6,0-6.9,0-10.6,0c0,8,0,15.8,0,23.8c-1.7,0-3.2,0-4.9,0c0-7.8,0-15.6,0-23.7
	c-3.7,0-7.2,0-10.8,0c0-1.8,0-3.4,0-5.2c8.7,0,17.4,0,26.3,0C416.8,31,416.8,32.6,416.8,34.5"/>
<path id="path42" class="st1" d="M76.4,65.4c0,2.1,0,4.1,0,6.2c-12.2,0-24.2,0-36.4,0c0-2,0-4,0-6.2C52.1,65.4,64.1,65.4,76.4,65.4"
	/>
<path id="path44" class="st1" d="M425.7,58.3c-1.6,0-3,0-4.6,0c0-9.7,0-19.2,0-28.9c1.5,0,3,0,4.6,0C425.7,39,425.7,48.5,425.7,58.3
	"/>
</svg>
