<svg width="88" height="117" viewBox="0 0 88 117" fill="none" xmlns="http://www.w3.org/2000/svg">
<path d="M58.2081 27.5486L70.4683 20.4681L67.1849 14.7836L54.9247 21.8641L42.3432 14.5928V0.43186H35.7864V14.5928L23.2049 21.8641L10.9448 14.7836L7.66134 20.4681L19.9215 27.5486V42.0812L7.66134 49.1617L10.9448 54.8461L23.2049 47.7656L35.7864 55.0369V69.1979H42.3533V55.0369L54.9347 47.7656L67.1949 54.8461L70.4783 49.1617L58.2182 42.0812V27.5486H58.2081ZM51.6513 42.0812L39.0698 49.3525L26.4884 42.0812V27.5486L39.0698 20.2773L51.6513 27.5486V42.0812ZM39.0598 27.4783C43.1064 27.4783 46.3898 30.7624 46.3898 34.8099C46.3898 38.8573 43.1064 42.1414 39.0598 42.1414C35.0133 42.1414 31.7298 38.8573 31.7298 34.8099C31.7298 30.7624 35.0133 27.4783 39.0598 27.4783ZM7.33 42.1515C3.28345 42.1515 0 38.8673 0 34.8199C0 30.7725 3.28345 27.4883 7.33 27.4883C11.3766 27.4883 14.66 30.7725 14.66 34.8199C14.66 38.8673 11.3866 42.1515 7.33 42.1515ZM78.1296 34.8099C78.1296 38.8573 74.8462 42.1414 70.7996 42.1414C66.7531 42.1414 63.4697 38.8573 63.4697 34.8099C63.4697 30.7624 66.7531 27.4783 70.7996 27.4783C74.8462 27.4783 78.1296 30.7624 78.1296 34.8099ZM62.2647 62.2982C62.2647 66.3456 58.9813 69.6298 54.9347 69.6298C50.8882 69.6298 47.6047 66.3456 47.6047 62.2982C47.6047 58.2508 50.8882 54.9666 54.9347 54.9666C58.9813 54.9666 62.2647 58.2508 62.2647 62.2982ZM30.5349 62.2982C30.5349 66.3456 27.2515 69.6298 23.2049 69.6298C19.1584 69.6298 15.875 66.3456 15.875 62.2982C15.875 58.2508 19.1584 54.9666 23.2049 54.9666C27.2515 54.9666 30.5349 58.2508 30.5349 62.2982ZM15.8649 7.33157C15.8649 3.28414 19.1483 0 23.1949 0C27.2414 0 30.5249 3.28414 30.5249 7.33157C30.5249 11.379 27.2414 14.6631 23.1949 14.6631C19.1483 14.6631 15.8649 11.379 15.8649 7.33157ZM47.5947 7.33157C47.5947 3.28414 50.8781 0 54.9247 0C58.9712 0 62.2547 3.28414 62.2547 7.33157C62.2547 11.379 58.9712 14.6631 54.9247 14.6631C50.8781 14.6631 47.5947 11.379 47.5947 7.33157Z" fill="white"/>
<path d="M7.97262 97.3893C5.63305 97.3893 3.72524 96.847 2.22912 95.7422C0.743041 94.6375 0 93.0406 0 90.9215V79.3717H3.15291V90.7507C3.15291 92.0764 3.6148 93.0406 4.52853 93.6633C5.43223 94.296 6.58695 94.6073 7.97262 94.6073C9.35828 94.6073 10.513 94.296 11.4267 93.6633C12.3304 93.0406 12.7924 92.0764 12.7924 90.7507V79.3717H15.9452V90.9215C15.9452 93.0406 15.2022 94.6375 13.7161 95.7422C12.23 96.847 10.3122 97.3893 7.97262 97.3893Z" fill="white"/>
<path d="M28.9585 97.1382V90.8411C28.9585 89.5656 28.6271 88.6115 27.9443 87.9788C27.2615 87.346 26.3679 87.0347 25.2533 87.0347C24.0785 87.0347 23.1547 87.3862 22.5222 88.0892C21.8896 88.7923 21.5682 89.7163 21.5682 90.8411V97.1382H18.7266V84.6946H21.5682V86.7033H21.739C21.7992 86.5627 21.8494 86.4321 22.3514 85.9199C22.5824 85.6588 22.8736 85.4378 23.1849 85.2269C23.8175 84.8352 24.9923 84.4436 26.3177 84.4436C27.9142 84.4436 29.2296 84.9156 30.2538 85.8596C31.288 86.8138 31.7901 88.2299 31.7901 90.1079V97.1382H28.9585V97.1382Z" fill="white"/>
<path d="M33.969 80.5769C33.969 80.145 34.1196 79.7835 34.4309 79.5123C34.7421 79.2512 35.1538 79.1206 35.6559 79.1206C36.168 79.1206 36.5596 79.2612 36.8708 79.5123C37.1721 79.7835 37.3126 80.145 37.3126 80.5769C37.3126 81.0188 37.162 81.3804 36.8708 81.6415C36.5596 81.9126 36.168 82.0533 35.6559 82.0533C35.1438 82.0533 34.7421 81.9126 34.4309 81.6415C34.1196 81.3804 33.969 81.0188 33.969 80.5769ZM37.0717 84.6946V97.1382H34.2301V84.6946H37.0717Z" fill="white"/>
<path d="M40.4153 87.1354H38.3569V85.3376L41.4094 81.9028H43.257V84.6949H47.6047V87.1354H43.257V92.1068C43.257 93.9045 44.1607 94.7984 45.958 94.8084C46.7412 94.8084 47.4843 94.5975 47.7855 94.3966L47.9863 94.2761V96.9175C47.3537 97.2389 46.5605 97.3996 45.5865 97.3895C42.1525 97.3895 40.4254 95.7525 40.4254 92.4884V87.1354H40.4153Z" fill="white"/>
<path d="M62.7567 91.9358H51.8622C51.9023 92.0965 51.8923 92.2974 52.2437 92.9803C52.4144 93.3117 52.6454 93.6231 52.8964 93.8842C53.4185 94.4165 54.4929 94.9387 55.8184 94.9387C56.5012 94.9387 57.0936 94.8283 57.6257 94.5872C58.1479 94.3663 58.4893 94.1453 58.68 93.9143L58.9612 93.5829H62.3049C62.2647 93.6833 62.2547 93.8039 61.9534 94.3261C61.6422 94.8484 61.3209 95.2902 60.5879 95.8728C59.8549 96.4653 59.0917 96.8871 57.8366 97.1784C57.204 97.319 56.5313 97.3893 55.8083 97.3893C53.7399 97.3893 52.063 96.8068 50.7677 95.6518C49.4624 94.4968 48.8097 92.91 48.8097 90.9114C48.8097 88.9128 49.4624 87.346 50.7677 86.181C52.073 85.0261 53.7399 84.4436 55.8083 84.4436C57.8768 84.4436 59.5637 85.0261 60.869 86.181C62.1743 87.346 62.817 88.9228 62.817 90.9114L62.7567 91.9358ZM52.9265 87.8884C52.4044 88.4307 52.0429 89.0132 51.9525 89.415L51.8923 89.6962H59.7143C59.7143 89.5556 59.7042 89.3748 59.3829 88.732C59.2223 88.4106 59.0114 88.1194 58.7704 87.8783C58.2784 87.3963 57.1839 86.9142 55.8284 86.9142C54.503 86.9142 53.4487 87.3561 52.9265 87.8884Z" fill="white"/>
<path d="M66.1406 95.6418C64.8653 94.4768 64.2227 92.9 64.2227 90.9215C64.2227 88.953 64.8653 87.3762 66.1406 86.2011C67.4158 85.0361 68.9822 84.4536 70.8398 84.4536C71.7435 84.4536 72.5468 84.6143 73.2698 84.9257C73.9927 85.237 74.4847 85.5584 74.7558 85.8798L75.1474 86.3418H75.288V79.3717H78.1296V97.1483H75.288V95.5213H75.1474C75.0872 95.6217 75.0269 95.7422 74.5148 96.1741C74.2538 96.395 73.9826 96.5859 73.6814 96.7465C73.0689 97.0679 71.9845 97.3893 70.8298 97.3893C68.9822 97.3893 67.4158 96.8068 66.1406 95.6418ZM67.1648 90.9215C67.1648 92.0764 67.5363 93.0205 68.2793 93.7336C69.0224 94.4567 70.0064 94.8082 71.2314 94.8082C72.4464 94.8082 73.4304 94.4466 74.1835 93.7336C74.9265 93.0105 75.298 92.0764 75.298 90.9215C75.298 89.7665 74.9265 88.8425 74.1835 88.1194C73.4304 87.3963 72.4464 87.0448 71.2314 87.0448C70.0064 87.0448 69.0224 87.4063 68.2793 88.1194C67.5363 88.8325 67.1648 89.7665 67.1648 90.9215Z" fill="white"/>
<path d="M0.0100555 109.421C0.0100555 107.453 0.602489 105.856 1.77729 104.651C2.94206 103.445 4.52855 102.853 6.51668 102.853C7.38022 102.853 8.17344 102.973 8.91648 103.224C9.65952 103.476 10.252 103.797 10.7239 104.179C11.1958 104.57 11.5975 105.012 11.9389 105.484C12.6116 106.448 12.8526 107.332 12.8526 108.085H10.4829C10.513 107.814 10.1315 106.719 9.25788 105.886C8.68554 105.344 7.69148 104.882 6.50663 104.882C5.24146 104.882 4.23735 105.313 3.49431 106.157C2.75127 107.011 2.37977 108.105 2.37977 109.411C2.37977 110.717 2.75127 111.811 3.49431 112.655C4.23735 113.509 5.24146 113.941 6.50663 113.941C7.6714 113.941 8.68554 113.499 9.25788 112.946C9.53903 112.665 9.76999 112.374 9.97082 112.062C10.3524 111.43 10.4829 110.968 10.4829 110.747H12.8526C12.8526 111.5 12.6016 112.384 11.9389 113.338C11.5975 113.82 11.1958 114.262 10.7239 114.654C10.252 115.045 9.64949 115.367 8.92653 115.608C8.1835 115.859 7.38022 115.979 6.51668 115.979C4.52855 115.979 2.9521 115.377 1.77729 114.172C0.592448 112.976 0.0100555 111.39 0.0100555 109.421Z" fill="white"/>
<path d="M20.8955 106.79V109.06C20.534 108.909 20.052 108.839 19.4395 108.849C18.5258 108.849 17.8129 109.13 17.3008 109.682C16.7887 110.235 16.5377 110.928 16.5377 111.772V115.829H14.4993V106.87H16.5377V108.588H16.6582C16.6983 108.487 16.7385 108.367 17.1 107.925C17.2707 107.704 17.4615 107.503 17.6924 107.332C18.1342 106.991 18.9776 106.679 19.9014 106.679L20.8955 106.79Z" fill="white"/>
<path d="M31.529 112.063H23.6869C23.717 112.183 23.707 112.324 23.958 112.816C24.0785 113.057 24.2392 113.278 24.43 113.469C24.8015 113.851 25.5847 114.222 26.5386 114.222C27.0306 114.222 27.4523 114.142 27.8439 113.971C28.2154 113.811 28.4665 113.65 28.597 113.489L28.7978 113.248H31.2077C31.1776 113.318 31.1675 113.409 30.9566 113.78C30.7357 114.152 30.5048 114.474 29.9726 114.895C29.4505 115.327 28.8882 115.629 27.9945 115.829C27.5427 115.93 27.0607 115.98 26.5285 115.98C25.0425 115.98 23.8375 115.558 22.8937 114.735C21.9598 113.901 21.4879 112.766 21.4879 111.33C21.4879 109.893 21.9598 108.758 22.8937 107.925C23.8275 107.091 25.0324 106.679 26.5285 106.679C28.0146 106.679 29.2296 107.101 30.1634 107.925C31.0972 108.758 31.5591 109.893 31.5591 111.33L31.529 112.063ZM24.4601 109.16C24.0886 109.552 23.8275 109.974 23.7572 110.255L23.717 110.456H29.34C29.34 110.355 29.33 110.225 29.099 109.763C28.9786 109.532 28.8279 109.331 28.6673 109.15C28.3058 108.799 27.5226 108.457 26.5587 108.457C25.5947 108.457 24.8316 108.779 24.4601 109.16Z" fill="white"/>
<path d="M33.6979 111.199C34.471 110.747 35.4651 110.516 36.6499 110.516C37.2524 110.516 37.8147 110.586 38.3469 110.727C38.859 110.878 39.2305 111.018 39.4514 111.169L39.7627 111.37V110.074C39.7627 109.582 39.5719 109.17 39.2004 108.839C38.8188 108.507 38.2163 108.347 37.403 108.347C35.9872 108.347 35.0835 108.799 35.0835 109.682H32.9749C32.985 108.678 33.4067 107.915 34.2099 107.413C35.0233 106.91 36.0876 106.659 37.403 106.659C38.7385 106.659 39.8129 106.94 40.6162 107.523C41.4094 108.106 41.811 108.949 41.811 110.054V113.037C41.811 113.871 42.0018 114.152 42.5039 114.152C42.6947 114.152 42.8553 114.132 42.9256 114.072L42.9658 114.052V115.809C42.7649 115.92 42.4436 115.97 42.0018 115.97C41.5098 115.97 41.0981 115.87 40.7668 115.679C40.4254 115.488 40.2145 115.297 40.1141 115.096L39.9836 114.805H39.8731C39.833 114.875 39.7828 114.936 39.4012 115.207C39.2004 115.337 38.9895 115.468 38.7485 115.568C38.2766 115.779 37.393 115.98 36.419 115.98C35.2844 115.98 34.3606 115.759 33.6276 115.307C32.8946 114.865 32.5331 114.182 32.5331 113.278C32.5331 112.364 32.9247 111.661 33.6979 111.199ZM38.628 114.122C39.0497 114.001 39.351 113.881 39.5217 113.77L39.7627 113.58V112.726C39.2606 112.354 38.4071 112.163 37.2022 112.153C35.4952 112.153 34.6417 112.505 34.6417 113.218C34.6417 113.951 35.4952 114.313 37.2022 114.313C37.7243 114.313 38.2063 114.253 38.628 114.122Z" fill="white"/>
<path d="M44.2711 108.618H42.7951V107.322L44.984 104.852H46.3095V106.86H49.4423V108.618H46.3095V112.194C46.3095 113.49 46.9621 114.132 48.2574 114.142C48.8197 114.142 49.3519 113.992 49.5728 113.851L49.7134 113.761V115.659C49.2615 115.89 48.6892 116.011 47.9863 116.001C45.5162 116.001 44.2811 114.825 44.2811 112.475V108.618H44.2711Z" fill="white"/>
<path d="M50.3761 111.33C50.3761 109.893 50.848 108.758 51.7818 107.925C52.7157 107.091 53.9206 106.679 55.4167 106.679C56.9028 106.679 58.1178 107.101 59.0516 107.925C59.9854 108.758 60.4473 109.893 60.4473 111.33C60.4473 112.766 59.9854 113.911 59.0516 114.735C58.1178 115.568 56.9028 115.98 55.4167 115.98C53.9306 115.98 52.7257 115.558 51.7818 114.735C50.848 113.911 50.3761 112.766 50.3761 111.33ZM58.3387 111.33C58.3387 110.496 58.0676 109.833 57.5354 109.311C56.9932 108.789 56.2903 108.537 55.4167 108.537C54.5331 108.537 53.8302 108.799 53.2981 109.311C52.7659 109.823 52.4948 110.496 52.4948 111.33C52.4948 112.163 52.7659 112.836 53.2981 113.359C53.8302 113.881 54.5331 114.132 55.4167 114.132C56.2903 114.132 56.9932 113.871 57.5354 113.359C58.0676 112.846 58.3387 112.163 58.3387 111.33Z" fill="white"/>
<path d="M68.3295 106.79V109.06C67.968 108.909 67.4861 108.839 66.8736 108.849C65.9599 108.849 65.2469 109.13 64.7348 109.682C64.2228 110.235 63.9717 110.928 63.9717 111.772V115.829H61.9333V106.87H63.9717V108.588H64.0922C64.1324 108.487 64.1725 108.367 64.534 107.925C64.7047 107.704 64.8955 107.503 65.1264 107.332C65.5682 106.991 66.4117 106.679 67.3355 106.679L68.3295 106.79Z" fill="white"/>
<path d="M75.6495 109.743C75.6495 109.311 75.4989 108.959 75.1876 108.718C74.8763 108.477 74.294 108.357 73.4605 108.357C72.0347 108.357 71.3218 108.698 71.3218 109.381C71.3218 109.672 71.4925 109.893 71.8339 110.034C72.1652 110.185 72.587 110.275 73.089 110.305C73.6011 110.345 74.1433 110.396 74.7257 110.476C75.3081 110.556 75.8503 110.667 76.3524 110.797C76.8645 110.938 77.2762 111.209 77.6075 111.601C77.9389 112.003 78.1096 112.515 78.1096 113.138C78.1096 113.811 77.9087 114.373 77.497 114.805C77.0753 115.247 76.5431 115.558 75.8905 115.729C75.2278 115.91 74.4445 116 73.5408 116C72.1652 116 71.0708 115.749 70.2474 115.257C69.414 114.765 69.0124 113.981 69.0124 112.897V112.615H71.131V112.897C71.131 113.851 71.9343 114.323 73.5408 114.323C75.1675 114.323 75.9808 113.931 75.9909 113.158C75.9909 112.786 75.76 112.515 75.288 112.364C74.8161 112.214 74.2538 112.113 73.5911 112.073C72.9183 112.033 72.2656 111.952 71.6029 111.862C70.9302 111.762 70.3678 111.521 69.8959 111.119C69.424 110.727 69.1931 110.165 69.1931 109.431C69.1931 108.527 69.5746 107.844 70.3478 107.382C71.1209 106.93 72.1552 106.699 73.4605 106.699C74.786 106.699 75.8302 106.95 76.6034 107.453C77.3766 107.955 77.7581 108.728 77.7581 109.773H75.6495V109.743Z" fill="white"/>
<path d="M69.0124 10.4957V4.16795H71.4624C72.4665 4.16795 73.2497 4.44918 73.822 5.01165C74.3943 5.58417 74.6755 6.35756 74.6755 7.33184C74.6755 8.30612 74.3843 9.07951 73.822 9.64198C73.2497 10.2145 72.4665 10.4957 71.4624 10.4957H69.0124ZM71.4624 9.52146C72.105 9.52146 72.6071 9.32058 72.9685 8.91881C73.33 8.51705 73.5107 7.99475 73.5107 7.33184C73.5107 6.67897 73.33 6.15668 72.9685 5.75492C72.6071 5.35315 72.105 5.15227 71.4624 5.15227H70.1369V9.5315H71.4624V9.52146Z" fill="white"/>
<path d="M78.8526 4.16795L81.4131 10.4957H80.2383L79.7362 9.24023H76.513L76.0009 10.4957H74.8261L77.3966 4.16795H78.8526ZM79.3446 8.2559L78.1497 5.24267H78.1096L76.9147 8.2559H79.3446Z" fill="white"/>
<path d="M88 7.33185C88 8.30613 87.7088 9.08957 87.1264 9.69221C86.544 10.2848 85.7608 10.5861 84.7768 10.5861C83.7928 10.5861 83.0096 10.2848 82.4373 9.69221C81.8549 9.09961 81.5637 8.30613 81.5637 7.33185C81.5637 6.35757 81.8549 5.56409 82.4373 4.97149C83.0196 4.37888 83.7928 4.07756 84.7768 4.07756C85.7608 4.07756 86.544 4.36884 87.1264 4.97149C87.7189 5.56409 88 6.35757 88 7.33185ZM86.8353 7.33185C86.8353 6.67898 86.6545 6.14665 86.293 5.72479C85.9215 5.30294 85.4295 5.09201 84.7969 5.09201C84.1643 5.09201 83.6723 5.30294 83.3008 5.72479C82.9393 6.14665 82.7586 6.68903 82.7586 7.33185C82.7586 7.98472 82.9393 8.51705 83.3008 8.9389C83.6723 9.36076 84.1643 9.57168 84.7969 9.57168C85.4295 9.57168 85.9215 9.36076 86.293 8.9389C86.6545 8.51705 86.8353 7.97467 86.8353 7.33185Z" fill="white"/>
</svg>
