<?xml version="1.0" encoding="utf-8"?>
<!-- Generator: Adobe Illustrator 24.3.0, SVG Export Plug-In . SVG Version: 6.00 Build 0)  -->
<svg version="1.1" id="Layer_1" xmlns="http://www.w3.org/2000/svg" xmlns:xlink="http://www.w3.org/1999/xlink" x="0px" y="0px"
	 viewBox="0 0 566.93 283.46" style="enable-background:new 0 0 566.93 283.46;" xml:space="preserve">
<style type="text/css">
	.st0{fill:#041C4D;}
</style>
<g>
	<path id="path16" class="st0" d="M60.13,145.38c0,1.94,0,3.67,0,5.41c-6.47,0-9.76-0.03-19.13,0c-7.27-0.74-12.21-8.11-11.88-16.21
		c0.33-8.08,5.87-14.05,14.71-14.24c0.2-0.01,28.57,0,43.77,0c-0.8,1.94-1.5,3.63-2.29,5.53c-2.98,0-5.91,0-9.04,0
		c0,8.38,0,16.59,0,24.91c-1.79,0-3.38,0-5.21,0c0-8.12,0-16.51,0-24.91c-1-0.06-1.79,0-2.57,0c-8.09-0.01-16.19-0.02-24.28,0
		c-5.64,0.01-9.53,3.73-9.73,9.2c-0.22,6.13,2.98,9.95,9.02,10.3C48.03,145.64,60.29,145.55,60.13,145.38"/>
	<path id="path18" class="st0" d="M320.24,149.84c-1.97,0-3.68,0-5.61,0c-1.27-6.34-2.54-12.67-3.95-19.71
		c-0.95,1.83-1.64,3.11-2.29,4.42c-2.21,4.46-4.32,8.97-6.66,13.35c-0.98,1.85-1.77,2.32-3.06,2.33c-1.1,0.01-1.93-0.48-2.92-2.3
		c-2.83-5.29-5.41-10.72-8.08-16.09c-0.18-0.36-0.41-0.69-0.91-1.54c-1.34,6.78-2.59,13.07-3.86,19.5c-1.84,0-3.61,0-5.64,0
		c1.5-6.51,2.98-12.88,4.44-19.24c0.53-2.27,0.97-4.2,1.64-6.78c0.35-1.35,1.17-3.14,2.71-3.16c1.99-0.03,2.7,1.19,3.31,2.33
		c2.68,5.07,5.08,10.31,7.6,15.48c0.51,1.06,1.09,2.08,1.82,3.49c2.81-5.71,5.45-11.08,8.09-16.45c0.46-0.92,0.96-1.78,1.4-2.73
		c0.58-1.21,1.4-2.12,3.2-2.12c1.31,0.01,2.29,1.71,2.64,2.91c1.16,3.96,1.95,8.05,2.87,12.09
		C318.03,140.23,319.09,144.85,320.24,149.84"/>
	<path id="path20" class="st0" d="M473.33,149.57c-1.97,0-3.68,0-5.61,0c-1.27-6.34-2.54-12.67-3.95-19.71
		c-0.95,1.83-1.64,3.11-2.29,4.42c-2.21,4.46-4.32,8.97-6.66,13.35c-0.98,1.85-1.78,2.32-3.07,2.33c-1.1,0-1.93-0.48-2.92-2.3
		c-2.83-5.29-5.41-10.72-8.08-16.09c-0.18-0.36-0.41-0.69-0.92-1.54c-1.34,6.78-2.59,13.07-3.86,19.5c-1.84,0-3.61,0-5.64,0
		c1.5-6.51,2.98-12.88,4.45-19.24c0.52-2.27,0.97-4.2,1.64-6.78c0.35-1.35,1.18-3.14,2.71-3.16c1.99-0.03,2.7,1.19,3.31,2.33
		c2.68,5.07,5.08,10.31,7.59,15.48c0.51,1.06,1.08,2.08,1.82,3.49c2.81-5.71,5.45-11.08,8.09-16.45c0.45-0.92,0.96-1.78,1.4-2.73
		c0.57-1.21,1.4-2.13,3.2-2.12c1.31,0.01,2.29,1.71,2.64,2.91c1.16,3.96,1.95,8.05,2.87,12.09
		C471.13,139.97,472.18,144.59,473.33,149.57"/>
	<path id="path22" class="st0" d="M359.13,136.43c5.9,0,11.65,0.23,17.36-0.09c3.25-0.19,4.83-2.4,4.74-5.21
		c-0.09-2.72-1.7-4.81-4.76-4.95c-5.72-0.27-11.47-0.08-17.34-0.08C359.13,129.63,359.13,132.97,359.13,136.43z M378.81,141.54
		c2.88,2.82,5.47,5.35,8.48,8.3c-2.85,0-5.1,0-7.38,0c-2.54-2.62-5.12-5.28-7.53-7.77c-4.58,0-8.84,0-13.37,0c0,2.64,0,5.12,0,7.73
		c-1.72,0-3.17,0-4.81,0c0-9.6,0-19.18,0-29.06c4.69,0,9.3-0.04,13.9,0.02c3.13,0.04,6.31-0.1,9.38,0.39
		c5.61,0.9,8.24,3.81,8.94,9.15c0.59,4.51-1.59,8.11-6.4,10.56C379.79,140.98,379.58,141.11,378.81,141.54"/>
	<path id="path24" class="st0" d="M176.98,149.88c0-1.78,0-3.3,0-5.16c3.79,0,7.48,0,11.17,0c3.22,0,6.44,0.06,9.66-0.04
		c1.12-0.04,2.45-0.16,3.29-0.81c0.89-0.68,1.82-2.05,1.8-3.09c-0.03-1.03-1.02-2.42-1.95-2.95c-1.16-0.67-2.68-0.82-4.05-0.86
		c-4.04-0.1-8.09,0.01-12.14-0.05c-5.22-0.07-8.44-3.18-8.46-8.05c-0.01-4.77,3.37-8.08,8.45-8.11c6.93-0.05,13.86-0.02,21.02-0.02
		c0,1.71,0,3.29,0,5.24c-0.9,0-1.77,0-2.64,0c-5.78,0-11.56-0.02-17.35,0.01c-1.89,0.01-3.91,0.24-3.93,2.85
		c-0.02,2.61,1.91,2.86,3.86,2.85c4.13-0.02,8.26-0.07,12.39,0.01c5.64,0.1,9.42,3.78,9.47,9.09c0.05,4.9-3.11,8.86-7.8,9.01
		C192.28,150.05,184.77,149.88,176.98,149.88"/>
	<path id="path26" class="st0" d="M535.96,120.83c0,1.84,0,3.37,0,5.22c-4.63,0-9.15,0-13.67,0c-2.31,0-4.63-0.07-6.94,0.04
		c-1.79,0.08-3.35,0.72-3.27,3.02c0.07,2.19,1.59,2.62,3.29,2.63c4.38,0.02,8.76-0.08,13.13,0.03c6.56,0.17,10.57,5.54,8.95,11.87
		c-0.82,3.23-3.77,6.12-7.19,6.22c-7.58,0.21-15.17,0.06-22.94,0.06c0-1.69,0-3.27,0-5.14c2.22,0,4.35,0,6.48,0
		c5.04-0.01,10.08,0.06,15.12-0.06c2.48-0.05,4.09-1.57,4.21-3.54c0.13-2.13-1.05-3.71-3.76-3.91c-4.35-0.32-8.74-0.19-13.11-0.29
		c-1.32-0.03-2.67,0.03-3.94-0.28c-3.67-0.9-6.15-4.43-5.93-8.21c0.25-4.11,3.23-7.45,7.49-7.59
		C521.15,120.66,528.41,120.83,535.96,120.83"/>
	<path id="path28" class="st0" d="M502.64,144.74c0,1.9,0,3.51,0,5.22c-7.97,0-15.86,0-23.87,0c0-9.76,0-19.34,0-29.05
		c7.98,0,15.8,0,23.81,0c0,1.63,0,3.23,0,5.15c-6.09,0-12.23,0-18.59,0c0,2.24,0,4.17,0,6.42c5.85,0,11.59,0,17.48,0
		c0,1.92,0,3.51,0,5.38c-5.88,0-11.62,0-17.53,0c0,2.38,0,4.49,0,6.88C490.21,144.74,496.36,144.74,502.64,144.74"/>
	<path id="path30" class="st0" d="M256.91,144.72c1.4,0,2.81,0.02,4.21-0.01c5.15-0.09,8.83-3.83,8.93-9.06
		c0.1-5.21-3.47-9.38-8.45-9.64c-2.96-0.16-5.95-0.16-8.91,0c-5.19,0.28-8.6,4.31-8.48,9.8c0.11,5.3,3.67,8.82,8.99,8.89
		C254.44,144.74,255.68,144.72,256.91,144.72L256.91,144.72z M257.03,149.96c-1.57,0-3.14,0.05-4.7-0.01
		c-7.65-0.27-13.25-6.58-13.19-14.84c0.06-8.27,5.48-14.22,13.26-14.33c4.03-0.06,8.13-0.22,12.08,0.45
		c6.89,1.17,11.11,7.55,10.51,14.99c-0.63,7.81-5.78,13.35-12.76,13.68c-1.73,0.08-3.46,0.01-5.2,0.01
		C257.03,149.93,257.03,149.94,257.03,149.96"/>
	<path id="path32" class="st0" d="M330.36,137.79c0,2.41,0,4.46,0,6.82c6.26,0,12.49,0,18.89,0c0,1.82,0,3.34,0,5.11
		c-7.87,0-15.8,0-23.88,0c0-9.57,0-19.08,0-28.78c7.94,0,15.82,0,23.88,0c0,1.54,0,3.05,0,4.92c-6.16,0-12.38,0-18.81,0
		c0,2.35,0,4.36,0,6.68c5.81,0,11.54,0,17.42,0c0,1.82,0,3.36,0,5.25C342.1,137.79,336.29,137.79,330.36,137.79"/>
	<path id="path34" class="st0" d="M138.74,120.75c-0.89,2.01-1.61,3.62-2.39,5.37c-5.12,0-10.15-0.02-15.18,0.01
		c-5.75,0.02-9.38,3.64-9.4,9.32c-0.03,5.67,3.6,9.24,9.41,9.28c4.88,0.03,9.75,0.03,14.62,0.06c0.14,0,0.29,0.13,0.6,0.27
		c0,1.52,0,3.12,0,4.63c-6.46,0-12.86,0.64-19.1-0.17c-6.7-0.88-11.05-8.18-10.63-15.1c0.56-9.23,7.13-13.6,13.49-13.65
		C126.18,120.71,132.21,120.75,138.74,120.75"/>
	<path id="path36" class="st0" d="M143.27,120.84c1.23,0,2.03,0,3.21,0c0,1.7,0,3.31,0,4.92c0,3.91-0.04,7.81,0.02,11.72
		c0.06,4.08,1.65,6.31,5.46,6.72c3.32,0.36,6.75,0.38,10.06-0.07c3.3-0.45,4.83-2.58,4.95-6.13c0.16-4.68,0.1-9.37,0.13-14.06
		c0.01-0.94,0-1.88,0-3.01c1.65,0,3.09,0,4.8,0c0.07,0.66,0.22,1.39,0.22,2.12c0.02,4.68,0.05,9.37,0,14.06
		c-0.08,7.79-3.9,12.2-11.26,12.69c-3.35,0.23-6.8,0.25-10.09-0.33c-6.21-1.09-9.29-5.14-9.44-11.73
		c-0.09-3.55-0.24-7.14,0.07-10.67C141.57,125.01,142.59,123.01,143.27,120.84"/>
	<path id="path38" class="st0" d="M220.87,126.11c-3.92,0-7.28,0-10.79,0c0-1.83,0-3.42,0-5.2c8.86,0,17.62,0,26.53,0
		c0,1.65,0,3.18,0,5.12c-3.48,0-6.96,0-10.71,0c0,8.16,0,15.92,0,23.86c-1.73,0-3.18,0-5.02,0
		C220.87,142.15,220.87,134.34,220.87,126.11"/>
	<path id="path40" class="st0" d="M416.77,125.99c-3.56,0-6.93,0-10.6,0c0,7.96,0,15.78,0,23.79c-1.74,0-3.17,0-4.94,0
		c0-7.8,0-15.62,0-23.7c-3.74,0-7.17,0-10.8,0c0-1.83,0-3.41,0-5.16c8.74,0,17.45,0,26.34,0
		C416.77,122.49,416.77,124.07,416.77,125.99"/>
	<path id="path42" class="st0" d="M76.41,156.95c0,2.14,0,4.08,0,6.18c-12.16,0-24.17,0-36.42,0c0-2.02,0-4.02,0-6.18
		C52.09,156.95,64.11,156.95,76.41,156.95"/>
	<path id="path44" class="st0" d="M425.69,149.85c-1.57,0-3.02,0-4.62,0c0-9.67,0-19.22,0-28.93c1.53,0,2.97,0,4.62,0
		C425.69,130.46,425.69,140,425.69,149.85"/>
</g>
</svg>
