<svg width="342" height="60" viewBox="0 0 342 60" fill="none" xmlns="http://www.w3.org/2000/svg">
<g clip-path="url(#clip0_42_2)">
<path d="M17.3691 13.9614C27.5636 13.9614 32.6608 19.773 32.6608 31.3962C32.6608 43.0192 27.5636 48.8308 17.3691 48.8308C12.9417 48.8308 9.47922 47.4348 6.9817 44.6424V48.8308H0V0H6.9817V18.1498C9.47922 15.3575 12.9417 13.9614 17.3691 13.9614ZM10.8302 40.9988C12.1243 41.5664 13.9634 41.8502 16.3474 41.8502C18.7314 41.8502 20.5704 41.5664 21.8646 40.9988C23.1588 40.4086 24.1124 39.3644 24.7254 37.866C25.3612 36.345 25.679 34.1884 25.679 31.3962C25.679 28.6038 25.3612 26.4586 24.7254 24.9602C24.1124 23.4392 23.1588 22.395 21.8646 21.8274C20.5704 21.2372 18.7314 20.9422 16.3474 20.9422C13.9634 20.9422 12.1243 21.2372 10.8302 21.8274C9.53598 22.395 8.57104 23.4392 7.9353 24.9602C7.29956 26.4586 6.9817 28.6038 6.9817 31.3962C6.9817 34.1884 7.29956 36.345 7.9353 37.866C8.57104 39.3644 9.53598 40.4086 10.8302 40.9988Z" fill="#201600"/>
<path d="M61.781 13.9614H68.7286V60H42.2322V53.0192H61.781V41.8502C60.6684 43.0988 59.272 44.109 57.5918 44.8808C55.9118 45.6526 54.0726 46.0386 52.0746 46.0386C49.509 46.0386 47.2612 45.63 45.3314 44.8128C43.4242 43.9728 41.903 42.815 40.7678 41.3394C39.6552 39.841 38.8264 38.1498 38.2816 36.2656C37.7594 34.3814 37.4982 32.2928 37.4982 30V13.9614H44.48V30C44.48 33.428 45.1384 35.8002 46.4552 37.117C47.7722 38.4108 49.9972 39.0578 53.1304 39.0578C56.2636 39.0578 58.4888 38.4108 59.8056 37.117C61.1224 35.8002 61.781 33.428 61.781 30V13.9614Z" fill="#201600"/>
<path d="M96.0438 20.9422H86.8484V41.8502H96.0438V48.8308H79.8666V20.9422H74.2812V13.9614H79.8666V0H86.8484V13.9614H96.0438V20.9422Z" fill="#201600"/>
<path d="M130 30.715V34.8694H107.114C107.454 37.0942 108.396 38.8196 109.94 40.0454C111.507 41.2486 114.061 41.8502 117.603 41.8502C118.829 41.8502 119.794 41.8388 120.498 41.8162C121.225 41.7934 122.246 41.68 123.563 41.4756C124.88 41.2712 126.242 40.9762 127.65 40.5902V47.4348C125.924 47.866 124.415 48.1952 123.12 48.4222C121.849 48.6266 120.895 48.7514 120.26 48.7968C119.624 48.8196 118.738 48.8308 117.603 48.8308C115.424 48.8308 113.437 48.6152 111.643 48.1838C109.872 47.7526 108.385 47.185 107.182 46.4812C105.978 45.7776 104.923 44.9262 104.014 43.9274C103.106 42.9058 102.391 41.8956 101.869 40.8968C101.347 39.8752 100.927 38.7628 100.609 37.5596C100.314 36.3564 100.109 35.278 99.9958 34.3246C99.9048 33.3712 99.8594 32.395 99.8594 31.3962C99.8594 28.7628 100.143 26.4132 100.711 24.3474C101.301 22.2588 102.187 20.4314 103.367 18.8649C104.548 17.2758 106.115 16.0613 108.067 15.2214C110.043 14.3814 112.336 13.9614 114.947 13.9614C124.982 13.9614 130 19.546 130 30.715ZM114.947 20.9422C112.358 20.9422 110.417 21.521 109.123 22.6788C107.852 23.8138 107.114 25.5618 106.909 27.9228H123.018C122.882 25.3802 122.19 23.5868 120.941 22.5426C119.715 21.4756 117.717 20.9422 114.947 20.9422Z" fill="#201600"/>
<path d="M218.234 13.7239V48H211.224V20.5858H198.64V48H191.629V20.5858H179.01V48H172V13.7239H218.234Z" fill="#201600"/>
<path d="M225.178 0H232.188V6.86192H225.178V0ZM225.178 13.7238H232.188V48H225.178V13.7238Z" fill="#201600"/>
<path d="M268.644 13.7239V48H261.634V20.5858H246.244V48H239.234V13.7239H268.644Z" fill="#201600"/>
<path d="M299.97 0H306.98V48H299.97V43.8828C297.462 46.6276 293.986 48 289.54 48C279.304 48 274.186 42.2874 274.186 30.862C274.186 19.4365 279.304 13.7238 289.54 13.7238C293.986 13.7238 297.462 15.0962 299.97 17.841V0ZM285.06 40.3012C286.36 40.8592 288.206 41.138 290.6 41.138C292.994 41.138 294.84 40.8592 296.14 40.3012C297.44 39.721 298.398 38.6946 299.012 37.2218C299.652 35.7266 299.97 33.6066 299.97 30.862C299.97 28.1172 299.652 26.0084 299.012 24.5356C298.398 23.0404 297.44 22.014 296.14 21.456C294.84 20.8758 292.994 20.5858 290.6 20.5858C288.206 20.5858 286.36 20.8758 285.06 21.456C283.76 22.014 282.792 23.0404 282.154 24.5356C281.516 26.0084 281.196 28.1172 281.196 30.862C281.196 33.6066 281.516 35.7266 282.154 37.2218C282.792 38.6946 283.76 39.721 285.06 40.3012Z" fill="#201600"/>
<path d="M313.992 44.2846V36.6862C317.344 38.3822 320.034 39.5536 322.064 40.2008C324.092 40.8256 326.35 41.138 328.834 41.138C331.046 41.138 332.618 40.8702 333.554 40.3348C334.51 39.7768 334.99 38.9512 334.99 37.8578C334.99 36.742 334.522 35.9722 333.588 35.5482C332.676 35.1242 330.532 34.555 327.158 33.841C326.976 33.7964 326.84 33.763 326.748 33.7406C321.71 32.6918 318.324 31.4644 316.592 30.0586C314.858 28.6304 313.992 26.3878 313.992 23.3306C313.992 20.4742 315.132 18.1646 317.412 16.4017C319.692 14.6165 322.702 13.7239 326.44 13.7239C330.932 13.7239 335.184 14.6834 339.196 16.6026V23.4644C333.656 21.5454 329.176 20.5858 325.756 20.5858C324.024 20.5858 322.792 20.7978 322.064 21.2218C321.356 21.6458 321.002 22.304 321.002 23.1966C321.002 23.8662 321.162 24.3906 321.482 24.7698C321.8 25.127 322.416 25.4728 323.328 25.8076C324.264 26.12 325.768 26.4994 327.842 26.9456C330.1 27.4366 331.924 27.894 333.314 28.318C334.728 28.7196 336.038 29.1994 337.246 29.7574C338.478 30.3152 339.402 30.9512 340.016 31.6652C340.654 32.3794 341.146 33.2274 341.488 34.2092C341.83 35.191 342 36.3626 342 37.7238C342 40.9818 340.838 43.5146 338.512 45.3222C336.186 47.1074 332.96 48 328.834 48C326.076 48 323.544 47.721 321.242 47.1632C318.962 46.583 316.546 45.6234 313.992 44.2846Z" fill="#201600"/>
<path d="M164 0L145.702 60H138L156.298 0H164Z" fill="#FD5101"/>
</g>
<defs>
<clipPath id="clip0_42_2">
<rect width="342" height="60" fill="white"/>
</clipPath>
</defs>
</svg>
