<svg width="125" height="25" viewBox="0 0 125 25" fill="none" xmlns="http://www.w3.org/2000/svg">
<path d="M112.819 14.0291H122.994C123.465 12.8924 123.742 11.7003 123.742 10.6468C123.742 7.34762 121.524 4.85248 117.671 4.85248C112.348 4.85248 108.854 9.42691 108.854 13.7241C108.854 17.8272 111.46 20.3224 115.73 20.3224C118.253 20.3224 120.11 19.4629 121.441 18.354L119.5 15.7479C118.28 16.6074 117.31 16.9401 116.201 16.9401C113.983 16.9401 112.958 15.7757 112.819 14.0291ZM113.179 11.3953C113.872 9.51008 115.425 8.23479 117.338 8.23479C119.057 8.23479 119.778 9.20512 119.778 10.425C119.778 10.7854 119.722 11.1181 119.639 11.3953H113.179Z" fill="#353535"/>
<path d="M112.819 14.0291H122.994C123.465 12.8924 123.742 11.7003 123.742 10.6468C123.742 7.34762 121.524 4.85248 117.671 4.85248C112.348 4.85248 108.854 9.42691 108.854 13.7241C108.854 17.8272 111.46 20.3224 115.73 20.3224C118.253 20.3224 120.11 19.4629 121.441 18.354L119.5 15.7479C118.28 16.6074 117.31 16.9401 116.201 16.9401C113.983 16.9401 112.958 15.7757 112.819 14.0291ZM113.179 11.3953C113.872 9.51008 115.425 8.23479 117.338 8.23479C119.057 8.23479 119.778 9.20512 119.778 10.425C119.778 10.7854 119.722 11.1181 119.639 11.3953H113.179Z" fill="#353535"/>
<path d="M99.8718 20.3224C103.42 20.3224 105.971 18.3263 105.971 15.0826C105.971 12.7538 103.836 11.728 101.896 10.8686C100.648 10.3141 99.9273 9.89822 99.9273 9.31602C99.9273 8.53975 100.537 8.06844 101.563 8.06844C102.783 8.06844 104.003 8.51203 105.444 9.6487L107.718 6.98721C106.498 5.90598 104.28 4.85248 101.868 4.85248C98.1807 4.85248 95.9073 7.09811 95.9073 10.0646C95.9073 12.4488 97.9035 13.4191 100.232 14.4172C101.258 14.8608 101.951 15.2489 101.951 15.8034C101.951 16.6351 101.286 17.1064 100.177 17.1064C98.8461 17.1064 97.1826 16.6628 95.6301 15.1103L93.1904 17.6332C94.937 19.4629 97.6262 20.3224 99.8718 20.3224Z" fill="#353535"/>
<path d="M82.1578 19.9897H86.3719L87.7858 14.7222C88.8116 10.8686 90.974 9.26058 93.7741 9.26058H93.9959L95.188 4.85249C92.7483 4.65842 91.0295 5.93372 89.5324 8.1239L90.3364 5.12972H86.1223L82.1578 19.9897Z" fill="#353535"/>
<path d="M70.5021 14.0291H80.6768C81.1481 12.8924 81.4253 11.7003 81.4253 10.6468C81.4253 7.34762 79.2074 4.85248 75.3538 4.85248C70.0308 4.85248 66.5376 9.42691 66.5376 13.7241C66.5376 17.8272 69.1436 20.3224 73.4131 20.3224C75.936 20.3224 77.7935 19.4629 79.1242 18.354L77.1836 15.7479C75.9637 16.6074 74.9934 16.9401 73.8844 16.9401C71.6665 16.9401 70.6407 15.7757 70.5021 14.0291ZM70.8625 11.3953C71.5556 9.51008 73.1081 8.23479 75.0211 8.23479C76.74 8.23479 77.4608 9.20512 77.4608 10.425C77.4608 10.7854 77.4053 11.1181 77.3222 11.3953H70.8625Z" fill="#353535"/>
<path d="M36.0266 24.5087C38.5495 24.5087 40.2129 23.372 42.1536 20.3501L51.3579 5.12973H46.8112L41.2387 15.2212L40.5456 5.12973H36.2484L38.0782 20.1006C37.496 20.8492 37.0802 21.0155 36.4425 21.0155C35.888 21.0155 35.2504 20.766 34.8068 20.4333L32.5612 23.4829C33.4761 24.1206 34.5018 24.5087 36.0266 24.5087Z" fill="#353535"/>
<path d="M26.2304 20.3224C29.779 20.3224 32.3296 18.3263 32.3296 15.0826C32.3296 12.7538 30.1949 11.728 28.2542 10.8686C27.0067 10.3141 26.2858 9.89822 26.2858 9.31602C26.2858 8.53975 26.8958 8.06844 27.9215 8.06844C29.1414 8.06844 30.3612 8.51203 31.8029 9.6487L34.0762 6.98721C32.8564 5.90598 30.6385 4.85248 28.2265 4.85248C24.5392 4.85248 22.2659 7.09811 22.2659 10.0646C22.2659 12.4488 24.262 13.4191 26.5908 14.4172C27.6166 14.8608 28.3097 15.2489 28.3097 15.8034C28.3097 16.6351 27.6443 17.1064 26.5353 17.1064C25.2046 17.1064 23.5412 16.6628 21.9886 15.1103L19.5489 17.6332C21.2955 19.4629 23.9848 20.3224 26.2304 20.3224Z" fill="#353535"/>
<path d="M0.257904 24.4255H4.47193L6.21853 17.8272C7.18887 19.2966 8.54734 20.2669 10.8761 20.2669C15.0624 20.2669 19.0824 16.4965 19.0824 11.229C19.0824 7.209 16.615 4.85248 13.3713 4.85248C11.7079 4.85248 10.4603 5.54557 9.18498 6.7377L9.62857 5.12972H5.41454L0.257904 24.4255ZM10.3217 16.7183C8.46416 16.7183 7.13342 15.443 7.13342 13.5578C7.13342 10.7299 9.29588 8.40113 11.6247 8.40113C13.5099 8.40113 14.7298 9.56553 14.7298 11.5062C14.7298 14.5004 12.595 16.7183 10.3217 16.7183Z" fill="#353535"/>
<path d="M70.3808 0.508698H64.9515L55.315 15.7322L53.5885 11.3953H49.0843L52.5498 20.1007H57.054L70.3808 0.508698Z" fill="#DD00FF"/>
</svg>
