<svg width="125" height="24" viewBox="0 0 125 24" fill="none" xmlns="http://www.w3.org/2000/svg">
<path d="M112.819 13.5204H122.994C123.465 12.3837 123.742 11.1916 123.742 10.1381C123.742 6.83893 121.524 4.34378 117.671 4.34378C112.348 4.34378 108.854 8.91822 108.854 13.2154C108.854 17.3185 111.46 19.8137 115.73 19.8137C118.253 19.8137 120.11 18.9542 121.441 17.8453L119.5 15.2393C118.28 16.0987 117.31 16.4314 116.201 16.4314C113.983 16.4314 112.958 15.267 112.819 13.5204ZM113.179 10.8866C113.872 9.00139 115.425 7.72609 117.338 7.72609C119.057 7.72609 119.778 8.69642 119.778 9.91627C119.778 10.2767 119.722 10.6094 119.639 10.8866H113.179Z" fill="white"/>
<path d="M112.819 13.5204H122.994C123.465 12.3837 123.742 11.1916 123.742 10.1381C123.742 6.83893 121.524 4.34378 117.671 4.34378C112.348 4.34378 108.854 8.91822 108.854 13.2154C108.854 17.3185 111.46 19.8137 115.73 19.8137C118.253 19.8137 120.11 18.9542 121.441 17.8453L119.5 15.2393C118.28 16.0987 117.31 16.4314 116.201 16.4314C113.983 16.4314 112.958 15.267 112.819 13.5204ZM113.179 10.8866C113.872 9.00139 115.425 7.72609 117.338 7.72609C119.057 7.72609 119.778 8.69642 119.778 9.91627C119.778 10.2767 119.722 10.6094 119.639 10.8866H113.179Z" fill="white"/>
<path d="M99.8718 19.8137C103.42 19.8137 105.971 17.8176 105.971 14.5739C105.971 12.2451 103.836 11.2193 101.896 10.3599C100.648 9.80538 99.9273 9.38952 99.9273 8.80732C99.9273 8.03105 100.537 7.55975 101.563 7.55975C102.783 7.55975 104.003 8.00333 105.444 9.14001L107.718 6.47852C106.498 5.39729 104.28 4.34378 101.868 4.34378C98.1807 4.34378 95.9073 6.58941 95.9073 9.55586C95.9073 11.9401 97.9035 12.9104 100.232 13.9085C101.258 14.3521 101.951 14.7402 101.951 15.2947C101.951 16.1264 101.286 16.5977 100.177 16.5977C98.8461 16.5977 97.1826 16.1541 95.6301 14.6016L93.1904 17.1245C94.937 18.9542 97.6262 19.8137 99.8718 19.8137Z" fill="white"/>
<path d="M82.1578 19.481H86.3719L87.7858 14.2135C88.8116 10.3599 90.974 8.75188 93.7741 8.75188H93.9959L95.188 4.34379C92.7483 4.14972 91.0295 5.42502 89.5324 7.6152L90.3364 4.62103H86.1223L82.1578 19.481Z" fill="white"/>
<path d="M70.5021 13.5204H80.6768C81.1481 12.3837 81.4253 11.1916 81.4253 10.1381C81.4253 6.83893 79.2074 4.34378 75.3538 4.34378C70.0308 4.34378 66.5376 8.91822 66.5376 13.2154C66.5376 17.3185 69.1436 19.8137 73.4131 19.8137C75.936 19.8137 77.7935 18.9542 79.1242 17.8453L77.1836 15.2393C75.9637 16.0987 74.9934 16.4314 73.8844 16.4314C71.6665 16.4314 70.6407 15.267 70.5021 13.5204ZM70.8625 10.8866C71.5556 9.00139 73.1081 7.72609 75.0211 7.72609C76.74 7.72609 77.4608 8.69642 77.4608 9.91627C77.4608 10.2767 77.4053 10.6094 77.3222 10.8866H70.8625Z" fill="white"/>
<path d="M36.0266 24C38.5495 24 40.2129 22.8633 42.1536 19.8414L51.3579 4.62103H46.8112L41.2387 14.7125L40.5456 4.62103H36.2484L38.0782 19.5919C37.496 20.3405 37.0802 20.5068 36.4425 20.5068C35.888 20.5068 35.2504 20.2573 34.8068 19.9246L32.5612 22.9742C33.4761 23.6119 34.5018 24 36.0266 24Z" fill="white"/>
<path d="M26.2304 19.8137C29.779 19.8137 32.3296 17.8176 32.3296 14.5739C32.3296 12.2451 30.1949 11.2193 28.2542 10.3599C27.0067 9.80538 26.2858 9.38952 26.2858 8.80732C26.2858 8.03105 26.8958 7.55975 27.9215 7.55975C29.1414 7.55975 30.3612 8.00333 31.8029 9.14001L34.0762 6.47852C32.8564 5.39729 30.6385 4.34378 28.2265 4.34378C24.5392 4.34378 22.2659 6.58941 22.2659 9.55586C22.2659 11.9401 24.262 12.9104 26.5908 13.9085C27.6166 14.3521 28.3097 14.7402 28.3097 15.2947C28.3097 16.1264 27.6443 16.5977 26.5353 16.5977C25.2046 16.5977 23.5412 16.1541 21.9886 14.6016L19.5489 17.1245C21.2955 18.9542 23.9848 19.8137 26.2304 19.8137Z" fill="white"/>
<path d="M0.257904 23.9168H4.47193L6.21853 17.3185C7.18887 18.7879 8.54734 19.7582 10.8761 19.7582C15.0624 19.7582 19.0824 15.9878 19.0824 10.7203C19.0824 6.70031 16.615 4.34378 13.3713 4.34378C11.7079 4.34378 10.4603 5.03688 9.18498 6.229L9.62857 4.62102H5.41454L0.257904 23.9168ZM10.3217 16.2096C8.46416 16.2096 7.13342 14.9343 7.13342 13.0491C7.13342 10.2212 9.29588 7.89243 11.6247 7.89243C13.5099 7.89243 14.7298 9.05683 14.7298 10.9975C14.7298 13.9917 12.595 16.2096 10.3217 16.2096Z" fill="white"/>
<path d="M70.3808 0H64.9515L55.315 15.2235L53.5885 10.8866H49.0843L52.5498 19.592H57.054L70.3808 0Z" fill="#E233FF"/>
</svg>
