<?xml version="1.0" encoding="UTF-8"?>
<svg xmlns="http://www.w3.org/2000/svg" width="1340" height="736" viewBox="0 0 1340 736" fill="none"> <path d="M101.843 733.38H54.8477V586.731H0V550.062H156.69V586.731H101.843V733.38Z" fill="#353535"/> <path d="M189.341 733.38H138.408L207.624 550.062H259.846L329.062 733.38H278.128L266.386 700.637H201.084L189.317 733.38H189.341ZM212.851 666.602H254.643L233.759 605.065L212.875 666.602H212.851Z" fill="#353535"/> <path d="M1226.12 733.38H1179.1V550.062H1226.12V622.083H1249.63L1290.38 550.062H1340L1288.82 640.417L1339.76 733.38H1290.14L1249.66 658.727H1226.15V733.38H1226.12Z" fill="#353535"/> <path d="M334.289 586.731H357.799V696.712H334.289V733.38H428.303V696.712H404.794V586.731H428.303V550.062H334.289V586.731Z" fill="#353535"/> <path d="M498.807 550.062H451.812V733.38H594.135V696.712H498.807V550.062Z" fill="#353535"/> <path d="M742.996 636.492C749.609 633.883 755.177 629.299 759.723 622.741C764.245 616.207 766.506 607.674 766.506 597.214C766.506 581.318 762.494 569.494 754.496 561.716C746.497 553.939 733.952 550.062 716.885 550.062H612.417V733.38H724.714C741.781 733.38 754.301 729.357 762.324 721.336C770.323 713.315 774.334 700.734 774.334 683.619C774.334 676.476 773.459 670.185 771.733 664.773C766.676 649.755 757.097 640.319 742.996 636.492ZM659.436 586.731H703.83C714.284 586.731 719.487 591.973 719.487 602.432V607.674C719.487 618.157 714.26 623.399 703.83 623.399H659.436V586.731ZM727.339 681.01C727.339 691.494 722.112 696.736 711.683 696.736H659.461V660.068H711.683C722.137 660.068 727.339 665.309 727.339 675.793V681.035V681.01Z" fill="#353535"/> <path d="M910.141 547.43H844.864C826.581 547.43 813.307 551.574 805.041 559.864C796.775 568.153 792.642 581.465 792.642 599.799V683.595C792.642 701.929 796.775 715.241 805.041 723.53C813.307 731.82 826.581 735.964 844.864 735.964H910.141C928.424 735.964 941.698 731.82 949.964 723.53C958.23 715.241 962.363 701.929 962.363 683.595V599.799C962.363 581.465 958.23 568.153 949.964 559.864C941.698 551.574 928.424 547.43 910.141 547.43ZM915.368 683.619C915.368 694.103 910.141 699.345 899.711 699.345H855.318C844.864 699.345 839.637 694.103 839.637 683.619V599.823C839.637 589.34 844.864 584.098 855.318 584.098H899.711C910.165 584.098 915.368 589.34 915.368 599.823V683.619Z" fill="#353535"/> <path d="M1140.62 559.887C1132.35 551.598 1119.08 547.453 1100.79 547.453H1035.52C1017.23 547.453 1003.96 551.598 995.694 559.887C987.428 568.177 983.295 581.488 983.295 599.823V683.619C983.295 701.953 987.428 715.264 995.694 723.554C1003.96 731.843 1017.23 735.988 1035.52 735.988H1100.79C1119.08 735.988 1132.35 731.843 1140.62 723.554C1148.88 715.264 1153.02 701.953 1153.02 683.619V599.823C1153.02 581.488 1148.88 568.177 1140.62 559.887ZM1106.02 683.619C1106.02 694.102 1100.79 699.344 1090.37 699.344H1045.97C1035.52 699.344 1030.29 694.102 1030.29 683.619V599.823C1030.29 589.339 1035.52 584.097 1045.97 584.097H1090.37C1100.82 584.097 1106.02 589.339 1106.02 599.823V683.619Z" fill="#353535"/> <path d="M835.406 58.3773C813.963 43.8708 784.375 40.9696 784.935 32.6558C785.421 25.2929 808.785 24.3176 808.93 18.5394C809.125 10.6401 766.093 -8.64487 728.652 4.4231C686.18 19.2465 659.947 73.3225 654.161 66.691C637.045 47.0647 613.536 29.852 575.536 26.8288C538.947 23.9519 508.824 57.7677 499.391 68.3489C455.338 117.793 439.341 199.663 469.609 253.422C516.774 337.242 620.416 394.853 674.85 400.339C685.791 401.436 725.346 363.817 780.802 317.323C847.513 261.418 876.736 219.045 878.462 164.628C878.56 161.19 879.946 88.4872 835.406 58.3773ZM783.281 229.358C776.693 243.036 762.884 256.737 735.265 284.141C715.232 304.011 714.454 303.597 696.366 321.492C681.682 336.023 681.147 340.095 674.85 342.24C670.717 343.654 655.935 347.384 607.822 306.547C576.071 279.582 560.195 266.1 547.407 240.963C539.895 226.213 527.958 202.759 532.504 172.917C533.817 164.213 537.415 142.758 555.673 125.619C559.928 121.62 574.345 108.479 597.052 106.529C602.376 106.066 625.886 104.018 641.737 118.963C657.491 133.811 654.623 154.949 661.6 155.485C670.134 156.143 670.474 124.449 693.06 109.845C713.093 96.8741 738.547 105.164 742.729 106.529C778.735 118.232 790.016 156.582 791.547 162.117C800.324 193.836 787.439 220.679 783.281 229.358Z" fill="url(#paint0_linear_763_7597)"/> <defs> <linearGradient id="paint0_linear_763_7597" x1="454.049" y1="200.199" x2="878.487" y2="200.199" gradientUnits="userSpaceOnUse"> <stop stop-color="#EFDA20"/> <stop offset="0.72" stop-color="#E5650E"/> </linearGradient> </defs> </svg>