<?xml version="1.0" encoding="UTF-8"?><svg id="Layer_1" xmlns="http://www.w3.org/2000/svg" xmlns:xlink="http://www.w3.org/1999/xlink" viewBox="0 0 1000 1000"><defs><style>.cls-1{fill:#fff;}.cls-2{fill:url(#linear-gradient);}</style><linearGradient id="linear-gradient" x1="342.26" y1="405.89" x2="657.74" y2="405.89" gradientTransform="matrix(1, 0, 0, 1, 0, 0)" gradientUnits="userSpaceOnUse"><stop offset="0" stop-color="#efda20"/><stop offset=".72" stop-color="#e5650e"/></linearGradient></defs><g><path class="cls-1" d="M77.71,801.09H42.76v-108.7H2v-27.18H118.47v27.18h-40.76v108.7Z"/><path class="cls-1" d="M142.73,801.09h-37.85l51.44-135.88h38.82l51.44,135.88h-37.85l-8.74-24.26h-48.53l-8.74,24.26Zm17.47-49.5h31.06l-15.53-45.62-15.53,45.62Z"/><path class="cls-1" d="M913.37,801.09h-34.94v-135.88h34.94v53.38h17.47l30.28-53.38h36.88l-38.05,66.97,37.85,68.91h-36.88l-30.09-55.32h-17.47v55.32Z"/></g><polygon class="cls-1" points="250.47 692.39 267.94 692.39 267.94 773.92 250.47 773.92 250.47 801.09 320.35 801.09 320.35 773.92 302.88 773.92 302.88 692.39 320.35 692.39 320.35 665.21 250.47 665.21 250.47 692.39"/><polygon class="cls-1" points="372.76 665.21 337.82 665.21 337.82 801.09 443.61 801.09 443.61 773.92 372.76 773.92 372.76 665.21"/><path class="cls-1" d="M554.26,729.27c4.92-1.94,9.06-5.34,12.42-10.19,3.36-4.85,5.05-11.16,5.05-18.92,0-11.78-2.98-20.54-8.93-26.3-5.95-5.76-15.27-8.64-27.95-8.64h-77.65v135.88h83.47c12.68,0,22-2.98,27.95-8.93,5.95-5.95,8.93-15.27,8.93-27.95,0-5.3-.65-9.96-1.94-13.98-3.75-11.13-10.87-18.12-21.35-20.96Zm-62.12-36.88h33c7.76,0,11.65,3.88,11.65,11.65v3.88c0,7.76-3.88,11.65-11.65,11.65h-33v-27.18Zm50.47,69.88c0,7.76-3.88,11.65-11.65,11.65h-38.82v-27.18h38.82c7.76,0,11.65,3.88,11.65,11.65v3.88Z"/><path class="cls-1" d="M678.49,663.27h-48.53c-13.59,0-23.46,3.08-29.6,9.22-6.15,6.15-9.22,16.01-9.22,29.6v62.12c0,13.59,3.07,23.46,9.22,29.6,6.14,6.15,16.01,9.22,29.6,9.22h48.53c13.59,0,23.45-3.07,29.6-9.22,6.15-6.15,9.22-16.02,9.22-29.6v-62.12c0-13.59-3.08-23.46-9.22-29.6-6.15-6.15-16.02-9.22-29.6-9.22Zm3.88,100.94c0,7.76-3.88,11.65-11.65,11.65h-33c-7.76,0-11.65-3.88-11.65-11.65v-62.12c0-7.76,3.88-11.65,11.65-11.65h33c7.76,0,11.65,3.88,11.65,11.65v62.12Z"/><path class="cls-1" d="M849.79,672.49c-6.15-6.15-16.02-9.22-29.6-9.22h-48.53c-13.59,0-23.46,3.08-29.6,9.22-6.15,6.15-9.22,16.01-9.22,29.6v62.12c0,13.59,3.07,23.46,9.22,29.6,6.14,6.15,16.01,9.22,29.6,9.22h48.53c13.59,0,23.45-3.07,29.6-9.22,6.15-6.15,9.22-16.02,9.22-29.6v-62.12c0-13.59-3.08-23.46-9.22-29.6Zm-25.72,91.72c0,7.76-3.88,11.65-11.65,11.65h-33c-7.76,0-11.65-3.88-11.65-11.65v-62.12c0-7.76,3.88-11.65,11.65-11.65h33c7.76,0,11.65,3.88,11.65,11.65v62.12Z"/><path class="cls-2" d="M625.72,300.79c-15.94-10.75-37.93-12.9-37.52-19.06,.36-5.46,17.73-6.18,17.84-10.46,.14-5.85-31.84-20.15-59.67-10.46-31.57,10.99-51.07,51.07-55.37,46.15-12.72-14.55-30.2-27.3-58.44-29.55-27.2-2.13-49.59,22.93-56.6,30.77-32.74,36.65-44.63,97.33-22.14,137.17,35.06,62.13,112.09,104.83,152.55,108.89,8.13,.81,37.53-27.07,78.75-61.53,49.59-41.44,71.31-72.84,72.59-113.18,.07-2.55,1.1-56.43-32-78.75Zm-38.74,126.73c-4.9,10.14-15.16,20.29-35.69,40.6-14.89,14.73-15.46,14.42-28.91,27.68-10.92,10.76-11.31,13.79-15.99,15.38-3.07,1.05-14.06,3.81-49.82-26.46-23.6-19.99-35.4-29.98-44.91-48.61-5.58-10.93-14.46-28.32-11.08-50.44,.98-6.45,3.65-22.35,17.22-35.06,3.16-2.96,13.88-12.7,30.76-14.15,3.96-.34,21.43-1.86,33.21,9.22,11.71,11,9.58,26.67,14.76,27.07,6.34,.49,6.6-23,23.38-33.83,14.89-9.61,33.81-3.47,36.92-2.46,26.76,8.67,35.15,37.1,36.29,41.2,6.52,23.51-3.05,43.41-6.14,49.84Z"/></svg>